<mxfile host="app.diagrams.net" modified="2021-05-17T07:59:51.878Z" agent="5.0 (Windows NT 10.0; Win64; x64) AppleWebKit/537.36 (KHTML, like Gecko) Chrome/90.0.4430.93 Safari/537.36 OPR/76.0.4017.107" etag="hVjMQrCzEjsQAwWWK2Y5" version="14.6.13" type="github">
  <diagram id="-J4i6Wd0QxWOs7irak5m" name="Page-1">
    <mxGraphModel dx="1237" dy="795" grid="1" gridSize="10" guides="1" tooltips="1" connect="1" arrows="1" fold="1" page="1" pageScale="1" pageWidth="827" pageHeight="1169" math="0" shadow="0">
      <root>
        <mxCell id="0" />
        <mxCell id="1" parent="0" />
        <mxCell id="Krz7Anwsq4YLMdX-sMMw-2" value="" style="shape=image;verticalLabelPosition=bottom;labelBackgroundColor=#ffffff;verticalAlign=top;aspect=fixed;imageAspect=0;image=data:image/png,iVBORw0KGgoAAAANSUhEUgAAAnAAAAF3CAYAAAAl/naGAAAgAElEQVR4AezdedA8RX0/cPzlD1OmTFlWYipaFWOlTOKRVBlTlqCVGCvigeKJoCA3yI3ikXggCMhhFAUVUOQWuRFQQEAR5b4PuQTkiogXeN/H/OrVpr/sd7+7+8zs9sz27Pan6nl2d46enk/PdL/7/Tl6rXXWWad64xvfWP56pIOXvvSl1cEHH1wVKRooGlgsDfzsZz+rXvva15b+uEf9sfHzFa94RbX//vsv1sNY7iZ7Day16aabZl/JUsHVNXDfffdVe+211+oby6+igaKB3mvAu/3+97+/9/exbDfw0EMPVXvsscey3Xa53zlrYC2zhyL90sANN9xQ7bPPPv2qdKlt0UDRwIoa+N///d/qve9974rHlQPy0sCdd95Z7bnnnnlVqtRm4TUwdwD3wx/+sLruuuuqP/zhD9Wpp55a3XTTTdko/XOf+1zoTN/3vvdVH/jAB6of/ehH1S9+8Yvqk5/8ZGXbFVdcMZe6FgA3F7WXixYNtK6BPgO43/zmN9Vhhx0W+sa99967+u53v1vZdsABB4Rtn/jEJ6pf/epXretwHhcoAG4eWi/XnDuAYzL4/Oc/X91yyy3VMcccU/EBOf3006sPfehD1fHHH199+9vfru6///7qpz/9aXXZZZeFFnP8oYceGsCU84HA73//+9XVV18dwNUHP/jBCvgCto488sjqC1/4QijnW9/6VnXjjTeGY5WhQ/nlL38ZyjzqqKOqo48+uvrtb38bfv/ud78LZV1zzTXVPffcUx1xxBHVrbfeWh133HHVeeedF7YdeOCB1fXXX9/5U1QAXOcqLxcsGuhEA30GcN/73veqQw45JPTHP/7xj6vf//731QMPPBD6WX2o/tbvRZQC4BaxVfO/p7kDOC89nw/ACBADnD784Q9XX/rSl0Jn8MUvfrH68pe/XJ1xxhnVu9/97uorX/lKddBBB1Wf/vSnwznnnntuAH8XX3xxdfLJJ1cXXHBB9fa3v726/fbbA6N30kknVWeffXb4A8J8v/DCC8M1gLvPfOYzlTI+/vGPh8CA0047LbSaepx44omBdbNBHc4///wK0IvimsroWgqA61rj5XpFA91ooM8AjoVCX65P1e+adANs+mRyyimnFADXzWNUrrIkGpg7gMOcid7Zb7/9AsNF70AUJgyIA9gwY8DXmWeeWR1++OHVZpttFpz4gT6dwtZbb11tvPHGFbCn0/jsZz8bmu+jH/1oxbmUXH755dUWW2xRAYzYN+UCaY7B2O28887V7rvvHkCg480eTzjhhMDW+Q28qc8gYGNCjdcKF+noXwFwHSm6XKZooGMN9BnAmYAzl7JQHHvssWHSzbJyySWXBC2yijz44IMda7SbyxUGrhs9l6usroG5AzgmUMDMi/6ud72ruvbaa4MfBSB21llnhc5gq622qq688srQIZjNoeKBvIsuuiiYR5lFsWqAmQ4CjU8APwCLCZV/HYYO2+Y3Fg8A1NEAfvzazBqvuuqqcC5w53x+HETnc9ttt4UygEb1ZOZlVu1aCoDrWuPlekUD3WigzwDOZJxbyV133VV97WtfC0ycPhQjp7/cd999q7vvvrsbRXZ8lQLgOlZ4uVzQwNwB3E9+8pMA3tTm0ksvDYDKDI54KXQGmK5f//rX4TjMGDAFPPGP41vx8MMPB2resXzoBEUQM0LsGvMrPzrHf+Mb36h0krYBcT//+c/DsZg9udWURQRVfP3rX1+1/4477gj7ADugEGt48803h2O7/lcAXNcaL9crGuhGA30GcPpGfsv6Rm4w+u1dd901/LbNRJxbyiJKAXCL2Kr539PcAVz+KsqvhgXA5dcmpUZFAyk00GcAN3z/JtCDWQVMoDFxiygFwC1iq+Z/TwXA5d9Ga9SwALg1VFI2FA0shAYWCcAtRIPUvIkC4GoqqhyWVANlJYak6uymMJ0FZ+EiRQNFA4ulAa4eZSWG/rUp32u5QosUDXSpgbXWXnvtkNVfZv/y1w8d7LLLLtXLXvay0l7lmS3PQEbPgOXtRKrPInxwN9hgg9KuGbVrnXHxbW97W2WN6jrHlmP6Mc7m3k4f+chHqrXWX3/94IzPIb/89UMHctyJ5irt1Y/2Ku20HO0kQn633XabBb+FKHqO/+WZ6dczI0OBgLrSbv1qtz6313/+539Wa22yySYzdTjl5KKBooGigaKBKuSYnHUdUyZUy/QVKRooGigamKQBuW9LEMMkDZV9RQNFA0UDNTWQIgAhRRk1q1sOKxooGuixBt74xjcWANfj9itVLxooGshIAynAV4oyMlJJqUrRQNFASxooAK4lxZZiiwaKBpZPAynAV4oylk/z5Y6LBpZPAwXALV+blzsuGigaaEkDKcBXijJaur1SbNFA0UBGGigALqPGKFUpGiga6LcGUoCvFGX0W4ul9kUDRQN1NFAAXB0tlWOKBooGigZqaCAF+EpRRo2qlkOKBooGeq6BAuB63oCl+kUDRQP5aCAF+EpRRj4aKTUpGigaaEsDBcC1pdmOy33ooYeq66+/vvriF79YnXTSSdVRRx1VHXnkkdUxxxxTnXbaadWFF15YSTT5s5/9rOOalcsVDSyPBlKArxRlLI/Gy50WDSyvBgqA62nb//a3v62uvPLK6ogjjqh233336l3veldlWQ3A7eSTT67OOOOM6swzz6xOP/306sQTT6wOP/zwsHbqf//3f1f77rtv2AbQFSkaKBpIp4EU4CtFGenuqJRUNFA0kKsGCoDLtWXG1Ot73/teddxxx1Xvfve7q/322y8Atfvuu6/63e9+N+aM1Tf/8pe/rL7+9a9Xn/3sZ0O2dxnfzzvvvOpXv/rV6geWX0UDRQONNZACfKUoo3HFywlFA0UDvdNAAXA9aTIAC7v21re+tTr66KMrnfysAvQBcwceeGCFmTvnnHNmLbKcXzSw1BpIAb5SlLHUjVBuvmhgSTRQAFwPGvrSSy8NwI0ZlK9bG3LnnXdW+++/fzDH3nHHHW1copRZNLDwGkgBvlKUsfCKLjdYNFA0UBUAl/FD8Otf/zqwY3zc7rrrrk5qKggCy/elL32pk+uVixQNLJIGUoCvFGUskk7LvRQNFA2M1sBcABwH/HPPPbfae++9g/P9Bz7wgRAlObqKy7n1pz/9afXe9763+tCHPlT95je/6VQJ/Oz+67/+q/rEJz7R6XXLxYoG+q6BFOArRRnz0KNJpmh3Prof/ehHQ//+nve8J/Tx+jLBU/oUQVZXXHFF9d3vfnce1ez9NbnT3HTTTdUXvvCF6tOf/nT1P//zP9Wee+4Z9CyYbY899qg++MEPhsC1z3/+89UNN9xQ/fznP+/9fbd5A1GnZ599dggM7ItOOwdwgAl/qwMOOKC6+eabqx/84Ach/cVee+1V+esarLT5UExb9sMPP1zp+M4666xpi5j5POyfTldHUKRooGigngZSgK8UZdSr7exHqevxxx8fAAQQcdBBB4V+69prr63uueeeANL08Q8++GDFNeOyyy6rTjjhhNCvCKASiGUy/+Mf/3j2yix4CYDYIYccEoLPkB+f+tSngqWEH7N2+P73vx/+vvWtb4WxFZgG8PbZZ5/gGvOxj32suvrqq6vf//73C66p+rcXdcrKRU+f/OQnx+r0lltuCRMUOkU6OYdOr7rqqtpBhPVrVu/IzgHcwQcfXPkbJZQib9kyizxtgNMFF1yQhRp0yh/+8IezqEupRNFA7hpIAb5SlNG2nm6//faQtghTL7gK+8ay0kSANkBP+qN3vOMd1Wc+85nqhz/8YZMiluJYQAzYff/7319hiB544IHG9w1AyzYA+Blfzj///MZlLNIJF110UWAqjW+YzGl1So90inCh366lUwDHNIfi/cMf/jDyPrFzOoRlTTZrZgTVy9uWi+iUtck82cBcdFHqUTSwkgZSgK8UZaxUz2n3A13Mo+985ztD1DqmPoV85zvfCSa/t73tbSF3ZYoy+16GPJ3AFmKDyTSVKBfzKRVVynJT1a/Nckw86BTbhn1LJXQqCBC+ufHGG1MVu2I5nQI4VCPKcZKwPS9rgtlTTz01oPlJ+pnHPsBax4qqL1I0UDQwXgMpwFeKMsbXcPo9l1xySegHMG5t5Y28//77A2DBjHz729+evrI9PhPBQcf63K9+9aut3Qk/RMwns2FT9rS1SrVYsPRbdPqVr3yltatIrm9yc+ihh3biDtYpgIN4OeVPErONu+++e9IhC7nvG9/4RrXbbrtlyz5ec8014WWvmzB4IRup3FTRwAoaSAG+UpSxQjUb77aiyw477NAZY/O5z32u2n777TtlMxorpYUTAGPsEAD7k5/8pIUrrF6kxO6CS5hoTdQXUbDE7lFwx49+9KPWb1EbxpRcbbdhpwBOJAzEz6l1lHB6FeDQ99mAmaOVDuqKGZcAjq997Wt1T5nLcdhTDstFigaKBkZrIAX4SlHG6NpNt5VfsgGw60hGlhjjBcf7ZRDmaSBDlG7XIlqVH9e4sbnr+qS6HgAFDFsfvGvhr8hMzXWsLekUwLkJM6tdd911DWdVPhDbbbddq/RmW0ocLhebxm+srqBdOajmLsL+3/KWtyzcS5673kv9+qOBFOArRRmpNCYlCLeWeTHvnMuBOBaARRZ+31iwea6G8+Uvfzn4cC1KIIkJB0AsSGFewlzLL05miTakcwDnJszovJRYKqxTtE2fdtppbdxj52Va1cDLWFfMEK6//vq6h8/1uCOOOCJEi821EuXiRQOZaiAF+EpRRgr1nHHGGcEfbd4WEWkxuJeYGC+iAMfMpmeeeebcb09UpbErVXDKvG5IQCDWGGE0b5FRQnBiGzqdC4CjUJ0UR83/+I//CJTxIiV1bALg5JbBvo2LzJ33wzd8fZ0pMzffiSJFA0UDq2sgBfhKUcbqtWr+C+O17bbbZuMXJd2I+rTtU9RcU7OfIblxTqmaOOBjXfss7iGnHKYCRfjFpZa5Abh4I2YeiyZNAJykgGa6o4RPBNMycJsTYPJiMPsWKRooGlhdAynAV4oyVq9Vs1/6nbe//e3ZRZ3LE/fxj3+82c1kfvR1110XohZ/8YtfZFNTyfT5w1mDu48iWJKFL6d0ZFhsLNzFF1+cVKWtAjgdAad3IGXUn5nHi1/84pH74vEcOnN6uOtovy6Aw7pxchwVLh/NBvbrTMclPx6uzyQmb3DfsE/LSr8Hr8NPQxbwIkUDRQOrayAF+EpRxuq1avbrsMMOC31ys7O6OVpfuChBDUxq1p3OMT3TN7/5zWrnnXfuPHBl1qeITpnbu8zFVrfOgjR32mmnpMCyVQAHAVscnW1/1J/IkFe/+tUj98XjLareVs6huopvelxdAHffffcFJ8tR5Us4GH0i6FGOOIBYEk3h9Uyvl19+eQgGsc8DK9u2mRPwy6fONpEwGLwjjzyy2nrrrcM2fg7MoGaznIQtbeM3sCwKCdWrnHEJheMAMwgIR91D2VY0sGwaiO/GLPedooxpr3/vvfcGRijXPhfY0TctwnJQUrPkzCj20d+ZNWulXLPTvhspzuM2lnK1qVYBXJ0blhV50aQugBP1c/jhh4+8fesGRtPqQw89FCJpgOFjjz02zNjk09MBoGTNSiV89GAAdmZPIm+YpwE5/ixs8Mp0HjAnYMQnCh9Ixqpx+pTcEXDz2ws8CqSh2PntLZLf4shGKBuLBhpqIAX4SlFGw2qvOtzgJ6VEzmIVgdSmqK7vV4SkTAWjrC9d12Xc9Yw7ktL2JSqVpY5OWa9yFXno6DRVVOpcARxmia160aQugAO4xkXJAFtxXwRwQJeIFrNP6weK3vVpuw6NSTomYwT2pPzwMNt3yimnBDXroB3Hj40Z1JpwWL0DDzwwPFg6Ftu1C0fQUQBOQc7pS+Tsoj1f5X7y1UAK8JWijGk0JF8VJr7rfG9N68rHqQ9plybd17nnnlvbLWZSOW3vMxb0JTsEy9JBBx3UtkpmLh8xkirXXwFwMzdHFZIE8huJfmTMEHXSiABSANQoETKPYSMAnO9Anbw2wBXzKtCFkeMTgjnDmnGUBLzsB9yweNa7YxbF1EndwnSNugfCmE+d41PkEVZQnXTiAOQ4AOfFxtwVKRooGnhEAynAV4oyHqlR/W+Rla9/xnyO1M/qs/q8Yo8F0FOuxdlWSxiHjDnjxoG2rjtNuVZxytGfcPhe7rrrrmQ6LQBuWLtT/AZk1lprrWrttdcOoIfvmRd0JQHgxjnk8kGJ1LUIlki5Yvci6OOvxpyJyQS4vGTqwoQqatUf8OcTE4e9IyJbzVZiJKmM574rj0+c43WS8Zqj7gP7F028o/aXbUUDy6iBFOArRRlNda/v4HLRhwHQvUkwnIrFaKqrWY9nNgVAWVJMvAFnZusulnmapu7ylOYOlo1pdMqtJzLI9DxpFYRJ+6bRU5Nz6NRYPqtkD+CACmCIbTvXP43x+Mc/PoA4QG6DDTaoXvKSl6xY31e96lUV8NRH0YEKnihSNFA08IgGUoCvFGU8UqN63wyAmBaTtz4IX1+MSx+F+dQEmK6ZgllFWFjihJ3FJLqnmIDH7wCfiTZLzKA4BhA0cSfGTAFuAKEJPjJAdCb3GpN9k3Mgx+/ocuM8353rGBIBjr4+dzPqeeedF3RKt/RjQmJlJ1akeM/uz71///vfDwsIcCdCoMRn/v777w8+4e6dPx32MYKsSGzY5zsBEOlZbkIkSyRRol5di+6VZd9ll10WWFftqM1TTECyB3CU4AH1YOX6h9kC3J7whCeEddc8TJbPWKm+zJqCCPook/z3+ng/pc5FAyk0kAJ8pSij6b0ABgKc+iIG3ZX89dxTjqwWy4ugM4O6fhSgkGGAAGv2Y5OsUsTdBYEBaHCJkU5KFG4Ea84BsDjGA7RABXDAPeaQQw4J15G+wnZ+0ILbAAg53lhQBpeZ4kZjLDvrrLOqSy65ZJXFxrGTEg0DicyC8xQuTJatuvDCCytADJATIEmHXIsAOvtZnvigAc6IFpMW7Ccd0fkuu+wSjlEewshxQJxnjW68mxYfMG4LAuTGJLJUommWMYAN2AUcHcstSRsKDNQmrqE87ZzifcsewM3zoah7bZGkO+ywQyUtCNFwHoyVxAvmpWwiXvpxEmdOjvEgxd86Oy/tOPFwD87Exh03uF2qEkC1SNFA0cAjGkgBvlKU8UiN6n3DBvSNUTc43nrrrWvcIHZORL3B2CAsoCsX0Q8fcMABwSSpX+bPzIIj3yfQBEjwL1ZvrBz2hp8z8IGZAxqsJX7VVVetuiWghLsL4OUTMJN1APjgC60s5QN2kiHTjVRUwBvQB1gAJHK2MpXyzUNAIE8In27njFoKCvO33nrrVY997GOrt73tbWHsW1Wxjr7QqWdB3Y2nAJQxmT79BthELqsfYGbcAjpjBgjAFSPK/1ubCAwErtw3oAUgK8Mn4P3mN785AGh65m+ubEycfXTkPZK+C4jUtkAlgEf/2oHVDWh3nnF6FikAbhbt/d+5HoZBgbDrBDF4KOqG7HuwPEACEcwqoH2Uu6gbVLeHD4g0y/Iwa1gUsQfQjM1L6qGxz+xNR+GBNjPzIHthJwUtDN6f72aCg53I8P7yu2hgGTWQAnylKKOp7rE+BrxxwrfWAMSqQJiNDFIAwiRf2XHlDW4HAgyimIpottO3uJ5BctykFdAxOEbRH+rzsFExwEo/B6RgYwC7eQu9YdRMrvXHMTsAplD/blLvvhAA2Lnor0wXLDbAAWBKZ4RuMEwm4HSFqTP2OA5YAOqAOcAPeKNn/TxA5lO70xUmCaCQfxTjJsgtsmquoc7qG4UZUZaDP/uzP1vlOsQK9dSnPjXcwyiwF89N/UmXe+21VwBfmC5jn3ENaMKaAcDuFSgz1pmsIFvo07NLL3ECY+wG4OgDkAXCAFvPOV0Z97QPcM1n1DPr2gCcMRkWoHPXxNoBi/TJtxRTpw585IFO58fnfVqdFAA3reYmnFcXwHnxNGodYQ7wQntYY4Sqh0tnBfl7Qb1oHkydgYfNS+RFBRR1CB5U6UPMSD1YG2+8cTjedy+8B6rOwtVmZo410BQpGigaeEQDKcBXijIeqVG9b/qJm2++eeTBBiQDmv4DQDJ4A058jJjWgBJ9Tgy28hn9ubAN+icDG7bBIGdAi6DMJ+AAWAAgQALWCegycBoER7FsKgrw6AMJNgmwsc35wwKcmrCa8A4CkeHj2v7NVBon9yblWDIMmX7cIG9y7rv+Wz+t7za5lssTOGGCAyJisAmdbbjhhqEMg7m+XN8MKBgv6F4AGyBoX2wL4IZOtCsAAiAiE1zTMdoTaIm6xCTZZkzBYj3lKU9ZDbgBb4N/L3jBC1YD123q1ZgYdYp9A6oIoARY0aln0negzDGYz0033TToDUvn3rwD2DXvAZC24447Bv2YtNAV/WDq6Eh70Bugq10wmFhN5SpD+3kmjceu71yWLnqPz7PzsXyzyFwBnBfaw7toUhfAAWI6qjqCYdPJEQ8bIGY24SHxcHjRCZ2aVaB2vXw6CJ2sB03n6UVl/oydsc40zjjMUieZWsMF/s+51ewuUuxxe/ksGlh2DaQAXynKaNoOgMGgX1U8H0MwmFsL66bfARBMGvUzcUIJJOhbACSDKPCGUQLQgEADp75In6TfIcCfcpi/nE8MyMADYTqMA17YMPAPq2LgjimRDJaTRN+IaXGvyldu13/AkUE+CmAL1EVAa7vvBnuij6WPKIPfbdP3M63SI10BC86JwCueN+4TsHFulMH+Xx1iPbQZ8P7CF75wNaA2CNqGvz/60Y+uNt988wB+2tQzAMYy1UQ8a9jPQdch9wpUE+MkIDdpjKM7z1QUOqdLz3pkL+O+qMf42yedDgekDO6v832uAA6KfelLXzrzTdS50S6PqQvgPAAAbJytTqojShiNrcPC3JltmlGYCXs5ALjo56BDQJubLekoUcVmbZES1gEzqZrheul1aGYWOtc61DcgqLwiRQNFA6trIAX4SlHG6rVa+ZfJG3PjsABF2Igo+hD9iQkgAUiAIkyQFA76IYwFVgLzY9JpsgnoARrO009FAGcA1P8YzLh6YDdMQJVJAEb92yixD9PDlDcKfI46xzb1edOb3hSu6bpd/gEaXF1SiTEkCpAw+Dtub/I5Cmg43/PxnOc8pzZ4i2DuUY96VFj/s00dA8TY4KYySVd1xsFx1wP6xulx8Bw66S2AQ8N7KMyifGKVFkXqAjj3a/bITl9H6IxviAcvzpriDMJvgC7OvIDC+BChbeODYnZH14735xj7+D74PWnGEetoRj7oexK3l8+igWXXQArwlaKMpu0wbjDRn5jsYdn0DdgypjgMm74E22BCyQXDJBNQA+Swbfp2fYUJI/ZGv2iiOBi8pS+KlgWDJrMfPy7gTN8EGLr2KAESXUefGM2O+rBxAhwyo7qH2E+OO7at7XQGsOYqmCOT8+HsCMx9QDJm6pnPfGYtIPfKV75yFVBv835NAmCIvol3bpipa3oPc2HgvJhvfetbQ0egwjqDPjbAOGU3AXCcUc1o+yJmx/xSFglw90X3pZ75ayAF+EpRRlNNMYma6I0S9QE6sEdcNpjZ+ORivrBzzHp8qURHbrLJJmH7lltuGVw2WAz4TAF4wB4TlckiNo6YjAqswqIoH6PnWttuu23YttFGG63GAA7Wj/9w9IEDjLB/xhWAMk5eHQ8AKpMFY9YBc/D603zXf/IniwyPFFkm8Fxk3IN6x3QVymdNAUqNKRGc6nsxo6JPo+O8bYC17drLBFtwAlMhPyt6JSb2trtG7MMdq3wChNuPaY3BeYA7sBEd7jGs2vVxj3vcSCD3jGc8IzCtg20QCm/pn/vg4x3Nn4OXYeUzIRgUjC5d2UcEt/gdn39MNP1oK2ZUOo7tA9jyP4xt4tlHotC7eiiL/kwQokuANo5tF+vhHfI8YqlnkbkAuBhtM1hxL7HZ1iJIEwDnJWFSaGICmKeOdMQcNIsUDRQNrKmBFOArRRlr1mzylsisjTvKgDPMWg36/xisDaAGe59AFL82v1cayO1XtvIAFn2MgdE2gy1WbpSwXgCSg6If5XMHYDDTciUBDPlJ5SDukbM8oEQwiMCRQAV15JcFzLoHzCI9Ghe5u4h8dJ7fwKtyjB3xOP6HtiEFONJzz8E6YkUBbCAF6EOW0I/vgArGjS82QAOgP/jgg0FngBrxKTBC2wyKIAEAO5pLJbMHTiPQGzy2ze/AsPseBkOAG8aVbvkGEuMt4MTvG6iXM46usczqbnKBZaQTTDFw+4Y3vCEcHyNRuRrRE2ZZm3hefQeSPat0abvAB/rFRGOlBwU4dFwE0YP7mnzvHMBBsmZJw/ZnL6wojoiCm9xEbscySXpo6oqXzAuWu5gheiHMNooUDRQNrKmBFOArRRlr1mzyFn1QDISafGS9vQDfSsBtXElA36AMjxX2KR/w4VYySgA7jCDgE9muUcfNYxsAEMc5QADgMWb4DpQSwQlAGvAJeNElcIfFBLRsA6gwZVJFYX2AVb7RQKJxFvPok7+fawIMfJ6BFiANgNttt93C2CPiMrKk/BQRKhHAYZVYica1p/P4oEVWdR46BcgA2UFhrgcyPSNxfDW5AJoJnZkg0DuhUxMAJn36AuiIZ4hO+U4a11mgADQ63HrrrUM2BzoyPrqm5zKSHJhBDN6wCPABHD3Hs0inAM4D4aWKdO1wxT2MHqjo1zW8vy+/ARw+H3VFB+PBGOesW7ecto/zIJfghba1XMrvswZSgK8UZTTVIeaBn1NfBOjRZ44DFTnfhxxhQA+JPn4AJ3Mwn0FtAUwDEtgzYMGYCGAAdICCbUyjWB7+goCCz5133jmYSYEUPtH2AxT2Kd+fcRbg8J3p3LGsYoAhs7g6AYuRJXQuM3jOYmyK6UNiPekPa4YZo0cCwLlXzJf7ZCLlS8nECchpFwydsrCbABYwBqxpEyDZMfQKAErKDBi7hu0AuDakV++xc4Bx19hgjIEAACAASURBVB0UEyYM36zSGYBDXXI0jVTmuIpTooexjy9mvCczSC9ZE0F759wh8Qvwcg/T6E3usRxbNLDoGkgBvlKU0VTPLCD63a7NX03rGY9n2oosR9zWl0/sG4aLWB9Te2NkgAlsGlaHSRtocCwWyae/OIFmbmWW449l4g9gMXMCDMAJgGEfM7RtxhaADRPlevpzjBnGSfSv+mDmgApEi3Ga7xYBSJSXs9AbMDUo0tkwI7v36I+GLAG8PO9MrIAa/RizAV66xLxh4OzD/mI96UJ5mEh6BtgAYTp2bW0ECNMl8gbAjiypNnbcoGhHZcwqnQE4dHB8aFeqtI6E3XjZxCyBH0NuAkzzF0DHFykaKBoYr4EU4CtFGeNrOH6Pgdrg1gdhMksxAM7jXpnjgAp+UKNkFHmBEAAqsHPjZJI5blSZsZxJ52H+MFHDTvjx3Fw+oxUrmn1zqdeoemhLOp3V/03ZnQA4NmCOk3V9ETwsHDmHQ5lHKWORtpkVyBGUW8fEwXMwF9Qi6bzcS9FASg2kAF8pypjmnjASnMFzF8AHs6K/7KuYrGN26goANo/7BeiB5T6IMSomgM65vvwQo0/erPVsHcChHYWUi0hqIijJbbbZpvf+cE3u2bE6b0EeufjDYQT5XUyapTW9x3J80cCiaiAF+EpRxjT6ZS5iApp3qo2V6s7XqO8TSkwaq0bu/Sq/yL4QKQJBEEW565SPXUxhstKzvtL+VgEc+pU5dFpGifMfm/OwA+BKN9X3/YI8BHOwrc9ThEYDk8PpA+ZZp3LtooGcNZACfKUoY1odSVuRM+OiL2KdiQ72095nDueJQlzJJ3ye9QQyYiTmPOvR5NrwwqiozyZltHmsMT2lj3+rAA6LFJdEmVYpQppnXfB12mvP8zxOpiJ2Y8hzl3Xh0MnfQrh03yOCu9RbuVbRQArwlaKMaVuCm4v3nkN9jiKCs+/sW9SrwAVgNEeCwhjAT2/eJELUVd1PqVPoNEfSgU75vqVi3+ikVQA3yXGyboM4LlU5Ta6Zw7GikORdE7HSNKp12vrrVNDQInOWVe/T6q6cVzSQAnylKGOWlpAAF4jLzRRFL/KcpXD+nkU/Kc8VsRjXlU1Z7qxlCSKU96yPIpUHoJ+b8HnEuqaUVgFcyooua1lAlMzQUni0GSHGQVZHgvUr0abL+rSV+55VAynAV4oyZr0Pg2DMnTVrWSnOxwzqm6R6WCQxMZe7LSUrM6t+WM4k1e8rUMa+AfrDiX1n1css5yNG6NRSZimlALiU2myxLCZV+WdQsKJY0LEpxAPFzC2qSw6gkucthVZLGcuqgRTgK0UZs+rfhI7/ay75v+R8i6sUzHpvuZ3PTLnTTjslH9ynuU/tjiyQu6zPIgiSTselauny3tp8lwqA67IlE1zLTE3CQtFilu3w8ssr1EQkJfSCSg8CuPEpKctjNdFgObZoYLQGUoCvFGWMrl2zrZKfikCXsHSeIlM+c15uJt2UOmH10Kd35Sozqu7GEas2xKWlRh3Tp22IDjqdpx835lgkr4DMNqQVACdCCA1r9QVmueFFZtu4kWUrk051bPI28VkDxiwdYvFc1LEs2xyRdb7AmuVQpAQRwiwKxlIflvPIPUHjsrVrud9+ayAF+EpRRiotYv6BOKsAzEP0afq4ujlE51HHVNcEnKQWmYfpktkReJOiZZHE6hPGx9Smyzo6EpxivJ01kHPStVoBcOhL6JczrPXGPBzWKhPZaHkJAM+SLZYCcSyxdAiwZxYgksRsy6f9nPgBDucWWVMDcu3Rr/XrgDS68uBA/tZpA+6OOeaYoD/5h+bRQaxZ67KlaGDxNJACfKUoI6VmgTiRfW2xCKPqavCTzgTzNmox+1HnLMI2E3C6tlZpVyJtFUtMk8TCXdUtxXX4jpuEDC9nlaLscWXIpSgQCP5pU1oBcBz2VF5WZEAMFW8ZLevX8WPwkPKtsH4bcCb3EODhZcUq+UMlWzgWgAPu+pBgss2GmlS2aNV/+qd/CnqcdFzZVzRQNNCuBlKArxRlpL5Lbhci4vXjbbMZJu78sPi9LWMkvECNrbbaqhNAhRSRaB/hsshy5ZVXBp22DajoEL6h0y6CAVsBcFgetCUmCNPm5Y/oXl4z4I3fFWDGjCf5nsS1HPSxSJgjvymBU73ZiMVhi4zWAJPoWmutVb3whS9caD+R0XdfthYN5KOBFOArRRltaMRk3OR6xx13DP12ap8061iatIvKtKzXMotxU8oJY2Ibq/IAycYNY+0DDzywFKqOi9HLb9cGw2klCDpliu7KbawVAIc1w7ZZgQE4Y0o97rjjQsJCKTGAuM022yz4aEHE/pj4dA7OcSwznxw5999/fwU9c9gvsqYGBB/8+Z//eQBwQJz8PUWKBooG5qOBFOArRRlt3v03v/nNEEgFXPCtnTXSTx921FFHBYZP/q55Op23qbdpyr744otDQl3WKUtazZJ9AJvJN5or0zvf+c6FZ93G6RuBBMQJBuTbOauJnmnW2qZ0Cvd0Ka0AOL5t0ChBJ/LPinluzCagX472/BzMBCgQI4cyN/NggjW7E2GJgeMz16X9ussGmPVafN1e8IIXBJPD61//+upVr3pVlpm9Z73Pcn7RQB80kAJ8pSijC11xjTHZNhD6NHGvs6oAIMEMa7LOjYZZlgN/akavCx10dQ3gzfgIKJikA711gIdjsEHcmfgUclnKKT9aV/obdR0BflGnLHx1dQpER53yL6fTK664YtQlWt/WCoBrvdblAqs0ANwOvsgerMHfqw5c0C9y7JgUcFQ96aSTwgoSzDDWcRUUw/Fah2WwKQPEgj4EGd1WCvCVooxUKuEb5X0a/vN+sYqwqAiU2nDDDatnPOMZ1ZOf/ORqvfXWC0l3WV9MzLFqBkrmum233bZ6/vOfXz3pSU+qnvvc54bfBkDlcKlx/PC1/DbRX2Th8y3idtS98w8HkOmbb/nLXvay6m//9m+rpz/96dVGG20UtmHV7GfJAvKwoxtvvHH1zGc+s/qbv/mbat111w0MUQwWVOaoa7nOouQCFTzJqjfqPkfp9ClPeUr1j//4j6vp1HPuWOA36pS/ueecTgWcrKRTz39bgYMFwC1Ir4DpnGcOoS7ViKH1YkovIHqKecFLBsCZaZrN87kUEu/lMUAIz3/f+94XZvzMEnWYgi7vqVxrMTSQAnylKCOVNrEU3qdJfxzhOWwzH/n0W/oGwWnAxNprrx3cZJhbbT///PNXHW/iZduk8u2jk0UW2Rfob5Ie6E8/7zh/dMeHnJ7pfJNNNqle+9rXhu+22eeYeLxzlTHpGos0jsyqU7qSzFpACZ3NolNEQxtSAFwbWp1DmWZm2LhFFTkFdS4cRAEx7Bqzet38UMw29ONFZLIB/IC+ZXHgXdTnIrf7SgG+UpSRi16s7oKl8O4WaU8DrAvPetazqqc+9alZLuTe3p23WzLml/k6VykALteWaVgvplMgZxHF7NIggGnDCMziyBv1w9eSyUK5zDZtp0aI1y2fi62BFOArRRk5aBnTxrQnyEEeLumOirSjAdYIQWz+ONMXWQ4NFAC3IO0sVUsKYJOTOoBSpk8+Nm2E0rtXK1HwHZHjiimnSNHALBpIAb5SlDHLPaQ4VySpBcXvvffeUBzHe8x3kfQakLbrcY973CoA95jHPCZr1ii9BtorUQYMJuhcpQC4XFumYb3k3VukGS5T56677hr8ZRqqYqrDpathmpVoell8CadSVDlpogZSgK8UZUysZAc7sdoc6qMw8XHzyNkcFevat883vOENq8BbZOFe/vKXL2US5NRtJwhOYEeuUgBcri3TsF6c9xcleoh/m0zscfbeUBUzHS4flUSiolaLFA001UAK8JWijKb1Tnm8pbcw2sMTIWlG5N9aNEtBSt01LYvV4E/+5E/WAHCAnKT4RWbTAB9rwRC5SgFwubbMktZLYAFft3m+NMw9W2+9dWfZtJe0qRfytlOArxRlzEu5UhjJCyf6cZRIxxBX5Rm1v2yrrwErCzznOc8ZCd4AOClEFjmwrb6mpj9STluuPLlKAXC5tkzDekmXMWtG9IaXTH44kwun5xxE4AQQp5MsUjRQVwMpwFeKMurWN/Vxova8N+PEIt/bbLNNMe+NU1CD7Ri2aDId92lCXGR6DUhFxR0gVykALteWaVivffbZpzJb6KtgvaT2yCnZ7sknnxzW9M2pTn1t32WpdwrwlaKMeelbfsU999xz7FqmAAUXiSKza8BzIpnvOPAm2e+dd945+4WWuATLxrUVQJdCrQXApdBiBmUwOcp11kfhM7P99ttn6XdmqR9+cUWKBupoIAX4SlFGnbq2dczNN98cJmPDvm4GQ+lE5uke0dY9z6tcK1iMA3BWICiy2BooAG5B2tf6sn1cXUAnz7H56quvzrIlDDaycec8C8tScUtaqRTgK0UZ81Y/XzfrSw7KHnvsUX3ta18b3FS+z6gB/eeLX/ziNUDc8573vNpJzmeswkKfLgE1M2quUgBcri3TsF4S0ubgsCqnmpx0dUWYdi5+b+PqfP311wfmYJhRGHd82b68GkgBvlKUMe8WkChbHrjo1mGJLauoFEmvAZPfP/3TP10F4kSlWsO2yOwaoEcZHnKVAuBybZmG9brmmmuyWEJlt912q708lTQDfcnQLtO5zPJFigYmaSAF+EpRxqQ6drWPk72ltFgGvOcCGIq0owFpW6IpdVIQSTtXL6XOSwMFwM1L84mvm4ujPXNoXSZQ4MKhhx6aWBPtFCe6TiLSwsK1o99FKTUF+EpRRg761CftvffeIUE2Zr5IexrQ5z7pSU+qHv/4x1d8DYuk0YB+X/7CXKUAuFxbpmG9LFPDbDFvqQvg5IuyTNbdd9897yrXvv5ee+1VMsnX1tZyHpgCfKUoIxftX3XVVZVB5he/+EUuVVrYeuy3337Vu9/97oW9v3nc2GmnnVYdfvjh87h0rWsWAFdLTfkfJOLoBz/4wdwrWhfAff3rXw+z81kqbFCQZHEc+wgc8l+zTFYK4cdz8MEHpyiqlLGgGkgBvlKUkYt6rWhiiboi7WuAr9YJJ5zQ/oWW6Ar8uaMfZ463XQBcjq3S4zrVBXDyQTGhTivWfeUUbcYp1YdF6YmlT6JYiktOqttuu63C+AF68TMe0+RTUl+RdD/72c+anFaOXSINpABfKcrIReUmWIUV6qY1+BwOrj/bzVUX+ypIgpz7+wLgFuT5E+7805/+dO53UwfAAVISDwNW04h8dwcddFB10UUXhdOtmoDRowPJgLGRDzzwQHXFFVcEB+ojjjgirAu42WabhXxz8lRNK0BjSSkyrfYW/7wU4CtFGblougC47lqiALj0uj7jjDOqnP03C4BL3+ZzKZGDfd3ggTYrWAfAMfXyJ5t2ZoNl4/M3vMyVHFNA3Hve857qsssuq6QowfKJgPvNb35TAXJC7mdJeKyMc845p00VlrJ7rIEU4CtFGbmosAC47lqiALj0ur7uuuuqiy++OH3BiUosAC6RIuddDMYJSJm31AFwIntmyQmFwbNgNtaNWMnh2muvrZhlP/GJT4S1FkUOAXnHH398YN8k5LWEz6wRRVKJHHnkkfNWc7l+phpIAb5SlJGLegqA664lCoDrTte5XKkAuFxaYsZ6YLVySHEBwPFPmyRMmwceeOCkQ1bcB4iJYv3Yxz5WydEGwHGWBuJ8usauu+4azLQiifgyHHvssSGoYcXCJxxgRpZ74uEJ1S+7WtZACvCVooyWb7N28QXA1VbVzAcWADezCtcowDgieC1XKQAu15ZpWC9mw5WAU8MipzpcPVZKZ8J3LUVotsSgTKbxvuU/QncDs4IaHn744XAPPrF2PmdNZ2Bx6FnYw6mUWk7qjQZSgK8UZeSisALgumuJAuDS65obznHHHZe+4EQlFgCXSJHzLuass84KQQxMhhgo/mV33HFHSD57ySWXhOphvTj/k69+9athn1QbP/7xj6v3vve91UknnRT2WSAZuyUoAmDhXzdYxkc/+tE1ygCYJO1ce+21q5122imc47xRfxtuuGFgykIhPfsnsrWkRehZo3VY3RTgK0UZHd7yxEsVADdRPUl3FgCXVJ2hMP7W3G9ylQLgcm2ZKesFuP3oRz8KjvpSZvzwhz9c9QACWTHdhofSvphWw3dLW5Fpy3BdC7/ffvvtoWxljvqTrygFAzelimY6DesnNUmRooFRGkgBvlKUMapu89hWAFx3Wi8ALr2u5TH0PuYqBcDl2jI9rZecTyslPuRXEJnA4dsUiIERJKJFgUJgk38f8IkVjLneIhh1rP2DaVScF30CI5AdNJ8OnjtcB2s3DpY1uJ/v3Qc/+MHBTeV70cAqDaQAXynKWFWhOX8pAK67BigALr2uTz311OpTn/pU+oITlVgAXCJFlmL+qIE6UajyqEkjMiyAH2C32267BV82zqPyuln9QK43izRvueWWIf/biSeeGL5LEwJsiQy1oLPIVOZkQPIjH/lIYBMl+rVPWVKPyOuz1VZbhcXpHY9Vs/3cc88Nsy0A7S1veUtIOTJcxwsvvLC37OHwvZTf6TWQAnylKCP9nU1XYgFw0+ltmrMKgJtGa5PP4WI0bb7SySWn2VsAXBo9llL+TwN1ABygJhBg2LfAsiXAFzAmHQhTq9QfIkv5nn3lK18Jf/fdd1/FDw/Lxq+Pz97pp58eTMAGP4EMwJiACi+gjg1rp2xAEEjE8gF4gKDEv0cddVRY0QFl7rqOsW1YOLTaX6RoYJQGUoCvFGWMqts8thUA153WC4DrTte5XKkAuFxaYkHqUQfAMW0KeMB8DQrTqhUapAX5+Mc/HgAXIAXAWT0hAjjBGYceemg49ZBDDgnfgTNiwJD/jY+dYApgEeDi3yei6Oyzz15FibuGoA/LY/FrA+RcAwPnPkZl4Fa/G264YbDa5XvRwCoNpABfKcpYVaE5fykArrsGKAAuva7l/WRGzVUKgMu1ZXparzoAzq1h2LBkg4I5s2qCfVg4y5jsv//+IepT/jUrLXzpS18Ky2MBdrvssksAd1i2/fbbL4AwqyQwzwJ9gJzfmDa+dYCcAAusnRxxwNull15aSSzMhMoc+4UvfCFE5GL47B8UjJ8IVJ9FigZGaSAF+EpRxqi6zWNbAXDdab0AuPS6NqGP5ED60mcvsQC42XVYShjQQF0Ad9VVV4XVFAZODV/5pMnnJpAAUHJcXD1BEEKMlOX3ZlmsGNBgJYrrr78+lCEP3U033RSCHuSIs4/EpbviuYIb/LkWgGe/wAnl3H///WvkjLM8F1BYpGhgnAZSgK8UZYyrX9fbC4DrTuMFwHWn61yuVABcLi2xIPWoC+CAJsfyOeuLMK3mvC5eX/S4yPVMAb5SlJGLjguA664lCoBLr2sWm5xdZgqAS9/mS11iXQBHSQIULG/VB8HiMe8OB170oe6ljt1pIAX4SlFGd3c8+UoFwE3WT8q9BcCl1OYfy7IMY845SwuAS9/mS12idB3RZLmSIix5BRTFvG8rHT/P/dZc1UEWKRqYpIEU4CtFGZPq2OU+7gpl6bluNM7ft/RRaXUtM8JKS0OmvWKz0gqAa6avcvQKGuD83+SBl5ZDwEHOIkhCRCuzb5GigUkaSAG+UpQxqY5t7rPyCh9SYEIQELeDF73oRdURRxwRluqT25FZqrxLs7WCSH4TZX65gr2OOeaYaptttqk23XTT8F1AluUPPUv8fItMpwE+1yYhuUoBcLm2TE/rJdDAwvF1xQsiae5wSpG653dxnHxyolWLFA2spIEU4CtFGSvVM+X+W265JSz4jWmz9rEob4BCbkaR5tZdFt2NHQLkpAmSVBu4Az6+/e1vp6zOwpYlYAsok0JJonLrV4vYlwdThD1wLNG477Y5TtQ8txbHieIfXI1mYRWV8MY8n6PygSa8xExFFQA3k/rKySk0YMZu9YUYYZqizFRlGHQ+/OEPpyqulLPgGkgBvlKU0baasTpS+gAI/rwn0vHUnbwBEiLMse8RzMn1WGRNDUhxxFeYnkTBA8VNgr+cL5+ZfkwZQHST89es0fJskb4KaM5VCoDLtWWWrF6S6JqZ5yRmrIBlTD+SU91KXfLUQArwlaKMNrXjvcDqYNCk+KkL2sbVCZgDMLBKyuSyUKQKqY0wafyKATgpkWYVYG6wzBKUNatG53t+AXDz1X+5+oAGzBBziUrlp2Pd1ZxNuwOqK18z0UAK8JWijDbU8fDDD4cl7N75zneGPIupr8Gvy2opO++8c0iqnbr8PpUnjyVztCTkgr1SC19FZtV3vOMd1TXXXJO6+IUpz+pAmOZcpQC4XFtmCetlJi8I4oQTTpjr3TPtrLvuutXll18+13qUi/dPAynAV4oyUmvO8nXbbrtt8HVLXfZweYCipe2YZn/yk58M717433wHt95665CovO2blThdu2LliqypAb6b0l3lKgXA5doyS1ovZoK3vvWtYa3UeZgumXJEcz31qU+tnve851Wvec1rwlqpX/ziFyuDWFlGa0kfzJq3nQJ8pSijZnVrHWbFE64EcaWTWiclOOjEE0+sBBBhi5ZFROULBmHq7Ero11KEOec760oXw9exQk9c7Wd4Xw6/C4DLoRWWsA5eDDNtg4J1T+WD8zA+7WlPC7NPzs3ofRFuXQg/HIvbW0f1u9/9bgCRa621VjX49+hHP7p61rOeFeppcClSNDCsgRTgK0UZw/Wa9jfzmvfQ0nLzEFGV/O3k41p00Q9yI5nVp3BaPcl1ecghh0x7+kKeJ9jD+5irFACXa8ssaL04ze6xxx7V85///Oqv/uqvqsc+9rGrgSSA6VOf+lS4exFAUoz4Dey1JXwcDFJAY+w8bRsEb8Pf//7v/34pzTtttcGilJsCfKUoI4U+b7vttuBAP+8BzILiUmbMg5FPocc6ZZgQCuCYtxx88MFZp83oWj+nnnrqqvGo62vXuV4BcHW0VI5JpgHryg2DocHff/3Xf13dc889q64niaI8PEw4ckulCn+3aL1oOn42++yzT0iBsOqiVRUA4z/8wz+Mrev/+3//L+RdGjynfC8aSAG+UpQxa0t4z9785jdXQFwOAuDwi/PeLppccMEFASjnkHDXBBbjKZdckSpEROfyDoxqjwLgRmmlbGtNA9i3QcA2/P1Vr3rVyGvzjQPkdC7MDGblTJ1NBPuH1QMEpSzg9zEpAotz73D9Bn+LEitSNDCogRTgK0UZg3Wa5vsHPvCByjqQOYnJ1tlnn51TlWaui1Vrdtxxx6xSp0isvMMOO2RtOpxZ8QtSQAFwC9KQfbgNy+ess846E0HRShE/ypBxXLQqMOhPDrmzzjqruvjii6trr702BBvwnRMCft5554Uoov3337/afffdQ665k046qVbnZBb6qEc9amx9//mf/znkauqD7ksdu9FACvCVooxZ7hZIynH9UmsmAzt111qeRQddnYv9zxGUWj2D2XrZRVAbM2quUgBcri2zgPWSnkMgwCCLNfidT9x9991X+86ZV+Vp4+gM+HHC5UdiPUCRrJb0kXVcbimm2yZrtKoEv7snPvGJY+v7mMc8Jphha1e4HLjwGkgBvlKUMa2ipe0QUKQOOYq0Dhj4RZArr7wyuHBEv9tJ5uFJ+9rSBRb2oosuaqv4XpTL0oMcyFUKgMu1ZRawXiI8BwHb8PcNNtggyV3L4eZaKYQf0HA9B3/nyFSkuO9SxnQaSAG+UpQxXe2rsOB8DCKatow2z+Mnxo3izjvvbPMyrZcNkO20006rksRaIosv3CgRgWsSKtHxLBKBYp0yHGtpNFaLHHzz6tR5GY8pAG4ZW30O96xDePaznz0RDMmBNKsYfACsxz/+8ZXVFGYVgylmz4vy3Oc+t3ryk5+82j084xnPWEjH6ln1tqznpwBfKcqYRv9S6fDrTLFk0zTXr3sOtwguFH0WKy2sv/76geXn7iH3JNeQyy67LAAm7Nytt94a1pgVIc+qgBmVk080LksDP7VvfvObwQQrXx43EVYJDCWLg/xuVrUQFMYSoRzrqLJaSN8kvxmGzR9rg4XbfVcPa6aaBAOZXFGWVYwhXec/bKLrAuCaaKscO7UGLAg8yFz95V/+ZfWUpzwlrHjA10KU2ayL2Yuc+7u/+7tV19l4442nru+4E++9997qnHPOqQ477LBqq622qkSqpgCe465XtvdLAynAV4oyptEav6c+mCcBGECzz7nhLGNljVPgTf5J/raXXnppWEoQgDJplNboc5/73ComjHsJVxHBJfpLwOKggw6qoqkTsAXCDjjggAD8AK/11lsvAEG+XPZ96EMfCouzuwZ/YqveWPkBYOR24hgmQ0DOZFheuL6D5WnehXgOXeec4LgAuNhS5bM1DYgW3WSTTarXve51YZYoiEBotg4kpVijcRAk+m7G2abwGdp3331L7qQ2ldyjslOArxRlTKMyZjwMkGhtgQLqgdHJUQALq6P0UfQZUqIAT0CTwKsbb7yxAqAFZNm36667Voceemi4R0nP4yTRklfYNAFbGDRrpfqzcoOl/0TqAx3Kcay8boAh4KZ9gT2+yKLxif4RaLMPKBSVDygynaoDJm/vvfduZT3WPrQdZrKp73SX91UAXJfaXsJrMQNY14/zcZuiQxJUMAzg/vVf/7ViGmpTmIcxF9KS5LzsSps6KGX/UQMpwFeKMpq2hyXiAAeTKiyPvIuYcYAuyuCzPegX5fkHMobFMYPHDZ4/fGyT3/zH1Atw6aMAVNg1QCxGetqGJcN+0Sd/OOAKCyZS1QQYCMPIMetJqcKkKoIVg6cczBsg6Dxl64+ARGXyGzz++OMDmyb/JfYPuJNOiTkWy8asi8U75ZRTAnAHKE20rRAxzj+vj/pvUmdWoVwnMe6jALgmrVmObaQBM0K51AYHgUYF1DyYcy9TwTB4i7+7MgHoSA18Zb3Umg23gIelAF8pymiqWouaY2eIAXxwEXnPkVBGiQAAIABJREFUMzMShhvIcCx/KtHfmDqTFyumDOZU5ADPf8p2y3Dx3WL2BDLs85sADPoHflo/+MEPAvgAMOL6p0AFQAJAcJFwvPqon/JmdewPlej4H3AlKME9RisEkCBNim1AL+YHKGa94LIBvNF3XI0CsGLmJNw5gLOYcFYZzMtYuVgOc6v2oWPXYUKlV9YD+nctzKv9MVl6rJ9VaZh0l1Gwk1jNXKUAuFxbpuf10jnoYJukBZn2lpkXIlgb9fmEJzxhjZUWpr3WSuepC7NI0yTDK5Vb9vdDAynAV4oymmoLoIhmOuZJzu9YGwyPgdwn1wcDPj9Q6RWOPfbY8N25fLoGo1eBBcAA4MIKMRP6Lm8jRgggAAyk+rEdy8OEx2zI9HfyySeHSFO+s3y0JJd1bgR+7g/gHFy1pek9z+t4YIxOmsik3HcCGaYFsoBeBJHj6gNwY/Omvca4cvuwHfD1DOYqBcDl2jI9rpeOHKWv4+9CDAajgFvc9rjHPa5xhzlLvc2UmTd0rEWWSwMpwFeKMppq3TvruSXA07e+9a0wYAN12C/MmShHIIoAZEcffXTw0TK4Y+cGnb35TmF6AC5uFAAahnr77bcPLJ7jgUGRjpgkv034HAPAAXa+A5NYP24QTLyDEYH2MT32SdwHk2jOflXD+tSPq3NX/fnw9cvv8RooAG68bsqehhrg46JD1skP+r40LKbx4fwU/v3f/30siIt+Jo0LnuEEPnnMqQayIsujgRTgK0UZTTXODyo+q8AcsAYgWXaOw7y0Evy2ACsMGrcEpiU+VoCVSRTTIGHitGICpsknQMhJnqkPaMOo8a8izmci5NfF5IeFw+xh9FzfJ6d8LJ+ITWVh44i62d4nYaJsq39kAm2DJeNzKN8lUL9sIpIXU5yrFACXa8v0rF5m2zom0U/zELP4Uas8PP3pTw8DwzzqdMcdd1TbbbddGKDmcf1yze41kAJ8pSij6Z17d2NyXADJ+4SRA6oI5ovZj68Wvyom1LiPqdSzHv3mmE8BNsdwugfCmOoAQf5VjvPHWR+r4ztmygRQP+IY18fc2YatioxV9H9TJ2DPX59Ejj2BA6mF/5uk44CW9kktno9ltCgIvltpecfUum5SXgFwTbRVjh2pAQOOGfq81/TbYost1mDhmGPmKXxXdKyYhiKLr4EU4CtFGU01jaVO5U82CLLUIzJmTeu00vGCLXIeXEfVny74FqYW5mZmbYCjjT5P1GsE+KnrnnN5gjtSRU+3cZ8FwLWh1SUqE8UMoJiFz1sMQBIER9+3l7zkJWGWP+96YRlkSucHVGSxNZACfKUoo6mWDdAy9LcpTHFYHGxd09Q+2Dr+dPqZyMYJqujbxKgtBo4J22RRfxxN2SnbclkZOO0lijpXKQAu15bpQb04F1uNoGlEVZu3xkcHgGNOHYxYa/Oadco2AMlbZaZcZHE1kAJ8pSijqYb5vMX3GOOARSN8qpjkbPOdidMffysSjws/Bv4Ba4R/ajzW+yj9CD9ZZtJ4TDzNNQajIr0zrhVFehG5y6Kplq+cFQz6JMzOwHJqXzXmbmlbmGdTLCE4qFPtxM/Rc7lsguUdjK7O7f4LgMutRXpSHw82U0Bu6ybq3C1vJdotR+EIbgCLg1COdSx1ml4DKcBXijKa3oEAAxGdAAaQBGgJNBBAwLzKt5VfmjU7Tdp8538mSbdAAuBMIAQRqOB45kKBPNwrsHt84ezDENknF5nrmXRJuyOfnGhUYIGzv9xm8sipl3xwGHYgM+blcg2grk8ij5uITveXWgRO3X333amLDX2V1RiA62UTz1xqQJxShwXApdTmEpRl5ig6zIy9qRmkK/UASNjBXIXfjoWoY8LMXOtZ6tVcAynAV4oymtZcsIFJmSAFyUuBLGwxEMVUCSwBWZge4I1ZCaOMIQO8MGHYH3kf5ZBzvj9JfwFB/QUAh80RdcpPi8+s60ofAuC5vuh1flyAo+2ur1zXBfiAxMiISG3SN78s9y/AQ0RtX4TZW6qYLjML5KIb7eUvVykALteWybBeZo9myDrsnB9q+alimoIM1RiqZJC0SkXbfke53v+i1isF+EpRRlP9Ym+kBgG4MESYMkwcAGXCBjR5VgEpf/zYADLC/woQA/IwzP5icl/3Ij2JPgMoI1ZoOfXUUwOoYwaVVgTT4Z0wKQTspAuRENt+fm4iWJkenWcNVKZZFoCcHczDzY74R09AbF9ENHFXq9nkphNEgIlFrlIAXK4tk1m9mEolpwWOchcJRXU6uQuHYyYig2aRxdBACvCVooym2mQew5JZFQEwAtoE3QBQwJdVDwA4EyN5sfi1AW4WPMe0SR2COXOcAQ/IAgqZYj3jUoI4T5oLzB1THxYaEwUQAooAo6g/QI7ZiqkU86MsrB9mHdBTR2lN5Jnro7jfCH5NhOkeGx/BKBY0uljwAySAbfzuHJYQZlisaPSn89u5fgv0UG4sJwZ+KEtQ1eD1mLHtp/tYlrrESbr21bbLKJ67nHMNFgC3jE9lw3tmptARM2H0QfoC4OiSbgHjHKJ4+9C2udcxBfhKUcY0egLgpKKQUwxQMogb3IGzaKq07FJ0ncDIA2lMawZ+2wEGx2DICCAW/bIAAsdHv9m4rqfj3XN0KYjbBU+oj/LVBcBQBvCI5etbAENsE8AKSKYz5km5IvkKArH0wGeQGRrLycfPUk5WxGB2pmOTU0sVAs+Ow1jyEeSrCOQ6HntpcAeGARB9DPZSpKprWcweQL7yyitDhLz+HUgDlrW9MulZHZXbViqYqJPyOZ0GCoCbTm9Lc5bOQnSTDqIv0icAR6cGNJ1qzlR9X9p+3vVMAb5SlDGNHoCCyAxNc35X5wB0/OIiEOzquimvw38POAVuTYwBX6AJML3qqqtCUAhTqz9tgl1jghbQwfyKGQKGPStAmvVKfTIzY/b5IjJNA+D6b30LwGdZNH06ICgIBdhznusAi8AbcBlTZzB/M6kvq5jMDC7flpseCoDLrUUyqo+Xnp+Wl7pP0jcAR7dm5UxNTFdF+quBFOArRRnTaFBAAvanjUz+09Rn3DlAB7awz8KnL5qSmYQBLQwYIHXzzTcH5vLQQw9d5X+obZibtY/9MSceAMj/kM+gvgNYA+Awpvpvy1/ZBqxh3IBGfl3aWHAK0yld7r777gHM6etFnMY+n+8bVm5ZBWgGqnOVAuBybZk518vLbpZr5tc3YYpg9umbMCVJmCmtQpF+aiAF+EpRxrTa4/fWRib/aeszfB4Tqnckrts6vL8vv5mDpUvBfgFz+llAia9gNKECWxgzYM36szGITO4925g/AS3MqT4PEAMKuWMwzQJ1TM/AG99Ea8fyZ8P08ZWzH0vHPOqZAwTV59577w1sH8BoDIgm877oNmU9AV3gOlcpAC7TluF/4CVElZtJefHMsPyZEXj5UOFmWgb+VOKFByA4FEeH1lRlt1GOmSnzrs7PwCNabqONNgpsloALHZKoN74ffQmDNwuXLsEzkEK0I/8iHb6BQEcu75dnybV0/gYBg2Lu7EsKfbRZRgrwlaKMae/RYMU/KtfnANhZFJMe0ym2S78kQCH248yfkQEDnoBW/RymTr9P9NP+on+g78CfAIW4PQIv/Yg+EgDEuEX/RJ/KJcrxPe5TF2beZQ1eCEqpqqCzGAgSt+X0WQBcRq1hJmSABaD4IXBIBUhQ3RxRgRR/vtvGVKgzM0sSkWUGhTKfVrzcfLFyX/JJ1KZcamaVckXJq4Qx5KRrdgn0mrkCb8CJfFZ8Q5gJ+JMAvtFRelpdtX2ejlp9mVanEZ02nxZATTmW8hI1SG+eE340niX6YiYAdkUbepYMKn7n7PsxjU66OCcF+EpRxiz3Km1HjhGegEl07p/l/nI5FzDzXvJrqyPMpZizLgTgE/jQh0l8m/owhhhbcpUC4DJoGcwHEOJlxoh4oZu8qMAIlglLB/ih0puaEHUO1jQFDHMUM0Kgg/mE6YFZwIyzSQcj5B5oAZABP7o2281VAHUrSjTJFYdpBMABMSwegGZbXcEEiH4Dhk0gRKDpxHKehda9ty6OSwG+UpQxy70y72l3E52chHkwZ/PuNLrS7+6yyy6BGZvm/DbOwcTF1C9tlN+nMk1i6wLsedxXAXDz0Pr/XRMAMUgCbnIkRQp9liphXuRqAnQwKSKVVhIAEvPG+TVHAULMBjFEHHjNXGcVJiKmaeHznIVz9XPAJm6++eYrtiMQj63Vjlg2YDWFMNFjLSVwxtTFXFQpyl7EMlKArxRlzKpbkwbLZDUB/7Nec9L5HO+lxgAuF01MmrHkuQjLRs6sUy56yqEeBcDNoRWwRkxbQEmbudWY0DByBx100FiTIb8KPi9NWJ6uVIYdwyRhFGMeqtTX5vMB8AA+GK8cBcDecccdx+aK085SBDB7tsWUARUYEMxlSTw8/ilJAb5SlDG+hvX3cIbXf4xbsL5+SbMdaf1TfSUXj0UV/qhcYuYt8s2VIKpHWoFliztOrlIAXMctwzwV/cyiw2ibVeCcipnREQ+DNB1GbvR91AWzHVDSlRmH/yHTLLDbxHwd69v2JyZEdBoTcBSMLTMptlXkWBcCLOYMdrvQwaRrpABfKcqYVMcm+0zwmFPnBeKANxPM6NTfpO59OhazzcIwT+aLedoSasaMIn/UgCAOE/xcpQC4DluGiZKfWVegZPDWmFKZROK1RZmi7XMEK5gkIGGWgIzBe2/y3QzUEj85Zh4XYWYwZfplAvYd4GziB9hEF+OONZh7dvhtFpPq6lpKAb5SlLF6rWb7ZdJg8qBeXYq+CvPW1eSky3sbdS3vsfdZ3yxgoytx3Rj53uV1u7q/Wa7DZJ+zTgqAm6V1G5zLEZIf0Txnkhxmt9hii2qzzTbLNliBaRmFP09fF7OuLbfcMssAB52J9SSf//znh7QCDR7BpIcCbnxl1KXIIxpIAb5SlPFIjdJ8Y0raaqutVmOA05S8ZikAhYhpPm+5+OCtWcv2trCYSL7bxVhBvwIWgMYUvsXtaWU+JZvI5xzoVgBcB8+FhIxmknGtvw4uOfYS6rLuuuuO9acae2IHO0TRmoEOigSXKYI7Bsus851vIhCXQ5sN1lduJyZT/mg5iFxRi5KXK4U+U4CvFGWkuJfhMuSl5GYAuLcFrOQqZDLFCM3jvR++53n9FtTGCsF814ZJ0wQMkw8ki+4vMloDdARQ5yoFwLXcMvzOttlmm05mU3VvxTp3lsjCyOUiXhQBC3EWqNOSj0qUKJBgFhT3xc+26y5LuTq10YFOU3fMhIhluspFtIUce7mmn+laTynAV4oy2rxvz58JKR/aVEBOoA5gyC0AiCvyx+X1TGiZryXaTmHK05dxyheMxOcuVbT6orYXFtQ6s7lKAXAttoyXxcvXZqTptNWXJ85L3EUgxUp1NLPndzaYykMEXGSZBH4AU1agkFJDehSpRXRAgjMMeEApc54BwAsXU6JIqWJA4AxtsFGG9C3y++gQZXYHZKVzEdBh8eJBMUjlshae3Gw5sl2YEs85dnfZJQX4SlFG2+2ACfZOAu/MbxZgb5ocm3lKepD99tsvgDfvfJE1NWDyKkoV846R0381ldtvvz1MiDGozNP63CIra8AEtSvCYOXarHlEAXBr6mTklmkakjM+U0Cuom6pV11o+rBHkDucr84KCsDXoEgwyXGeAz/GB7ACGo499tiQfJYpQFSmJL+AFxAnozwnbLNOUVYAn4HCb8ADy6dDdK58Z8MRR0AeU0bq1BlN9QSUMnfkALgH2yR+l59P/VKwBLHMPn6mAF8pykilOxMj7Njwn3UypfbxjlnwnG/tK17xiup1r3tdmEh51wQhmCg5DsDzHnKT8D459jWveU3w9RI4ZILlOCsADF/L72lXJEmlh7bL4fOrHxp178CXPxHBQNwb3vCGar311guTWZNcK6tccsklQdcx8awofuwdv8WXvexl1YYbbhgmt/o5k1T9yahraddlf4cH25rOc7J4DNbN9wLghjUy5reZopekruj4+HK0lZerbj0mHWcWzYFV55BKAMImne2ZZ565imkbrAOGLYIpHYrOxqcgB8DLkmMGD5GZtsnhZiZv5QKdF5YOI+f+ADZATnnKxboZUIhB5cILLwznGlgAx2ExuNjHhJlC+NUB93UF2MMQqvcooZcHH3xw7jNFviKpJwSj7jfnbSnAV4oyUunIeyW1xLg/ORoBBSDO5Ei+Qm4PopQ9s1j+F73oRasCXrgAAPqc9LFBlrkTtOTdHXcN2wG7RRbZALBs43RAPyav9GWSqj+yrBj9AnX6u3gult42+1gV9IHcUExQlTFJ19jUXNfBnUf7S6Sea35Q+igAruZTgdFp4udjZgQs5C6cZfmepBIdS12/GCaXccEdOhGdjU5NhwRAx+g0wNNLJapXpyU3GTaOzgE1jFzUvdmTc6VQMfN0nohgplYdmkEHANQpWpHBuaPEQMUPJYUwXxjk6goT8LhoT2BQh2xgBJ7oLab2GOe7N257nfpMArGubbAAJpdVUoCvFGXkon8TWGCiSNFA0UB6DRQAV1OnGBNLCdUR7JvZzywDZZ3rpDgGu6OuKPUUAhDVzaHGhwZ4GifyjQFckS1TV+AAQMHcAVyRFTWDBbDcByCBBXQcvzosXfSvsx1wZN5RtpmrFAl+Mx+MYw+Zd/h5TQIw4+5jeDvHWACyjrhn4G3YxOxc+7BeACpxDxhFYI6vIEDHnGwABWyZoAF27U13dMU0jMFjUsZURr8kDCe9y36vvnwm6RrwBPjH+TsxhzGTLaukAF8pyshF/3I5CgQqUjTQRw2Y9I/qe3O5lwLgarZEEwBnAKsL9mpevtXD+FBMAlJNLl4XwPH5AGKmzXVkkEuRHV6aEsCmjgB7KRz1mwA4oJKpCVgbFsAL6+geBoUfDGAHbDpXnT2PAB6QBsRxPpfvTrsDfdhI/h72A4BMyQCuyQiQx3cGoHMM89g4k5aoNkB3HMAbrOcifk8BvlKUkYtuC4DLpSVKPabRgH4zlyC2UfUvAG6UVkZsqwvg+GcZAOuEZwMxOjiZxscxPyOqknwTIAR4qfusUhfA8StrGlGZgv2a5f4AoOE8ddOU1wTAmQxgKkcJhlF9+AcSplnPkqjdaArmM8PkDLTpjAA72/jP2MbkCczxQ3J/zLFcBfjbAXiAGJO4fcoEGKXFGY7WHayfspi1l1FSgK8UZeSi+wLgcmmJUo9pNMCaE60305zf9jkFwNXUcF0Ah/2o61OG4ZA+A+BjsmJyNdhGtgVgwbJEAbAmgZhBAParX/2q8ldX+JtdffXVdQ8fe1xdAMenULBBXWEiBSiG/asG9aOslczW9DuteJGBnVmXH6sL4DwHno1JPoWYMCZWvoIYQmUDcJ5XwkeQMzlg5tnEnllvEXhmhtbmJhJMrcyfzK2CWgR2AHLOtw0o4wfILOtcZY0TaXPUZxklBfhKUUYuui8ALpeWKPWYRgMmsDkHIhYAV7NV6wK4k08+eWQk46jLAHAGW4IFY3oSBIB1MWgDVX5jO7Al9nO2N3hGvzBlABYGVv5J/MDY7B0r2qsuKMPOxEF/VF3rbqsD4DBHQECMfmUmBET8ARHYH+CT35V7YbYTsGAdWcuA0TGzJ78ubJAUFvzYmAsdZwCUMw3gA4JsUxYzIP8vAMY5TIsAIB8y14n+DoCL3/Iv8Q0DrqMAQ+o7i9QFcMyX7mklkcfOPUTfQyAVowvsM40CyjFpM4ZOehYMsWcOGAV6Hc9X0CQAoLOd/5vnjt48d+qtbQzKk9KZCKzg96Sdl01SgK8UZeSi9wLgcmmJUo9pNKDvNF7kKgXA1WyZugBOOD2wUEdESkZfIk7yQBS0LzeZAZdvkqSLfnuQRFQCd87DcAA22BeDsWOBFkyLwRx4wXLVTSIMsEiMO6vUAXAAJyAUQQCQCSS4Vz5ZckgBTVgfvlj+gAn3BoDYD2TRhcGOWc+9Anb8tezXXsALoLbBBhsEE6DoU3rie0c/QsQBFuUDJvZpPz4PftOdemKnogDKMcI1bmv6WRfAuf4seQSBV/pKIZNYwOHyAUd6a3LOcBl9/Z0CfKUoIxf9FQCXS0uUekyjAe4p/IJzlQLgarZMXQDH5FV3/Uwggi8YwZ4ALShbPk+YH/5N0mzIX2YfcAGUYNmYwpi0MEpAC3ADgGG2gB0DKAaO71IdYZpk+m1idh1Vbh0AJ/pxMC0GRhFjw6QHlAJJzIFyGPG7AsxIzAsHzAJvPon79huj5j6AQIBQpOUxxxwTdOY3kEd/csVF1s35dIvRpFMBHerAhMh0qE7aIorzXGsWqQvg3HvOSSQn6QAYjyzxpOMWbV8K8JWijFz0WgBcLi1R6rGIGigArmarAnDjnMljEdgcIKCujxQAFxk44AQTpAzABJsWfY9sBywAOKDNwB5XKbAvpnfAHDG7AjwAIaBU15mcKZG5jtPmLALADfupDZcnAS92LQqQKQGoOrtPembGw4IBTO4RIN1uu+1CsAVWiukZkyZZMkaMznx3D/KmMf0BP377tJ8+gTjgke6BX/oCkl1XecyWALJrOhcTykwdBdhkup1F6gI4ALQugzpYH5OAaL70LEa/P8wY0zPdEmB9JZ9BLJ7ymgoQTo/LJinAV4oyctF7AXC5tESpxzQa4JozOIGfpow2zykArqZ26wA46RywWEBYHWEujYwXsBWjXWw3yKJuAQjlKRtoY+oEtgzMBukIuABBbJ7fkQE0cEczZZ36ADDx3DrHjzoGgFupDOwWIBUFQIigF8DwB1jQg3v3B6Ri1jBiUU/AVswDB6Bh2yKjqTx/2EifdEaXWKF4Dd+ZUTF4QB99ASyu6xjXjfWIdWXqHmQP4/YmnwAcoL+SiBYFdpuI5XhEltKve+MLqb78+5QHCAPPdAGg8u9wDjP2XXfdFXzdIvijD5OFJr6Usa4mJCYhyyYpwFeKMnLRewFwubREqcc0GjDRN5nPVQqAq9ky/Kpe/epXhwHRoDjqD4vkb1KkaM3LzeUw5t/oCD9tBZgn6WCUfuI26/JNk1sHGBsnWL9pmCLlceaPLNW48uN2PmUiUWcR97HuuutO1BFdrb/++sE8Xvda7gFLyydSO/KpxIRFvz0gFzMJsLoP/h32YTn9AXOegfj8mn0CcPTa1J+N3+ag72Dde+j7cSnAV4oyctFjAXC5tESpxzQaQKREi8U057d9TgFwNTWM3cEqYGfG/WE1MByRVatZdDaHNfHfG1dpZkks1Tgd2c4kOcjAjStrlu2YR1GucqNFQDJLefFcLBXmahYBngC0STqyj6kWM1hXMI18Id0vFg1baQ1EvpT8A5kCtDFTMtAKlDFHA2+eW4CLKRnzSIA9QIw0YXIdb9baV/+9cMNT/ksBvlKUMWX1k59WAFxylZYCO9SAibBsBLlKAXA1W4YJ1eA2SQx8Bsc6TBDTnEGUyU76BiY7v4nzIwg0GA9m2nc88Rm/D/8e3C49RCwrnDjmn/qo+6wJheuYUJkFMUWphR7duxkT8CIIgh9ZnfuvWxcmWn5zs0hdE6q61w1CifVx39qAuZQvJJ9JIA5gto8I6GCOlxrEH2Ansa8JCP/DCOB0XoAd0AfkNRFs3qzRuk2ul8uxKcBXijJy0UcBcLm0RKnHNBowCZX8PFcpAK5my9SNQhVNOcnU53IAGhOi/GQcvQ24G220UTBnGWiVIYGqzs9A6Dd/Iv5vGCU+YFgsA6/v6mZA5luGKeHPJH2GwR8jpiwAcZIwu/Hfq2tKHFeWe1nJDMsfCzBIKfS4xRZbBKDCp8s98/0CWlJS4IIKZmUP6wYx1PG7HNYhAMu3jx8ivz8MnsALjB6Gjnj+AHasnOfJOZFhc9zgBABL53mKfnHD1xv3exr/vXFl9Wl7CvCVooxcdFYAXC4tUeoxjQZYS/in5yoFwNVsmboAjn9RXNpoXNEiQ5mmMEMA2GDmfGlADPAAmrxkAANWBFOCBTEwAhDywNnPzAWkAWsYQoM053UslwEaCwJUrZR8FrM0a3Sl+60D4IBF4CoyPeP0VHc70Ml0iKnkswW8Rf8rPl4r3Xvd6zhO+dKOzCJ1AZz2nhUszlLPac8F9jzHOZsepr23lc5LAb5SlLFSPbvaXwBcV5ou12lDAyazgxPaNq4xS5kFwNXUXl0AB5jFvGXjipZnLPoHAVzYMkCD8FcCSDBKcd1KpjSABzBj5sReAXCuA9gBFEChiBkCjGFesHfKsILBSrMITNU0gQXhggP/6gA4ZmF53viTpRCMEj140ST4ldiXrgggJ09eKgFMYqTrtGXWBXDYMXrqmwDSnoOUvod90UEK8JWijFz0VQBcLi1R6jGNBozVK43n05Sb6pwC4Gpqsi6AY77CBk0SJkaAjCO71QEAGcwO4bNk+SyfTFfSTQBWEtB6mBzLRIuVA1REGjKRiRgE/pRrfVVBF9i6gw8+OPhArQRi+KSpy6xSB8C5BgDKFyuVcJp33/zTpBfxW1oUwDiVDxwfOxGo0Vdx2rrXBXAAEH1GkzxTsGjbCIywt/YBrkAT/8XoL+n7oDkc68lsSgaPs425NZYT98dz47Xip+NjfTBt0TytDvEY+fs8d8soKcBXijJy0X0BcLm0RKnHNBrgmhSJkWnOb/ucAuBqargugMOocfpeKRjAQByZHAMfFslgCNgwhxpwCTAiqtOAyk/JMQZR351D+DrZbiBmNmVaBQj5vQFuPh0zTpTFDBvLG3dcne11ARxwCqSmEgCC6TqCK+1AFynuKdYRwE1hZq4L4FxX7jtsLBCKTcXAaltAHtBnLmZu57/4+te/PoB9uhWUoC08EyYVkhVLheN5APKdi5UFonfdddeQ+oWpGRtsfVlMo2sw0RMsryAHkwIJleXf8wckE8A2BqZYhSGeF3Yu0b8U4CtFGbmovAC4XFqi1GMRNVAAXM1WrQvgFIctmyYCD6NhwE0hMcFvnbIAvlSMSV2Gv6keAAAgAElEQVQAB5AIzlgp4KFO/bs6RjRnCpayCYATuAKcEQysYBa/mcixjcCcYBbMW/SXw8wCAWaOzOhAlwmASQXQhr11L/LC8bMzyAK/AJm0IiYMngnlOZcJAVDD9lpGDCiO0auAv0nGTjvtFK5ln23YymWUFOArRRm56L4AuFxaotRjGg0IiNMH5yoFwNVsmSYAzgCIhcMK9UEMzpENnLW+dQGc6zBz0msfxKCKxZrEZNa9jyYADjvL5xF4w/4xpzOrYxcxaXITYscEDPCV9MwJpAHWBMAAZH4TrCQWzkoMzPcmGXwnPa9YugjgRJ5igZ3rWJ/veMc7AniMpn4ALpaPGcQcY92wgSYwyyopwFeKMnLRfwFwubREqcc0GjBpTeEbPs2165xTAFwdLVVVaEQO8nWFedAgmLuIVmWWSyXWI62btR9LCBQNsjVMoAYwwiyM3XGciFWDgT+pLrCV8TjHMgPH69oH0ETzKeAiHJzPGAGKBs/1e9CfS32GmVD+hV7mFMIUKYVMXcH6MXMKaIj+kAAXpguQ8ly6d+wYcbwceECXa4lOBtj4RQqyAQiZZpXFX9O9XnPNNcGXErPHRCpZMXMrJo64d+lfgEHmWeAP6GfeVYb9mD3XWcbo06CkqgrPVTQrx21NPwuAa6qxcnzRQDsaMBZEv+J2rjBbqQXA1dQflqOJXw9TlUE6lQN9zWo2OowvHcCVkiJmio1O7nUqg4XD4BDmVOfTG7Mg1slgCDzx1dp6662rLbfcMuS8w9z5jVHCNinDeZgpgAU7Bdzw/2MGBHaARdcAXvh5ibx1PAbKS+q3/UyQwE9MB8MXDGhJ1ZbAVhOWCsAEqIAlg7t6YALVm8+a75i3GHhAlzHYxXfglCkAyCXS1gDFwHIEvcCyP6LcCHYB58GygWErXBD1Upd4XYCQ/9sySwrwlaKMXNqgMHC5tESpxzQaQAIgDHKVAuBqtszgAFfzlAAcmLhyFeAp9YBrQAcY6orB32LpQAWwgMkBsAAcgAqrxIQHaFx22WXhDyun3gAocIdZciwBPERB8u9izsVAReYMAAIEla2OzsVIMRP6LmJVewF/tsWABb56TReVn3T/rt0UDIo0Vo9cBeumHXPu7LrQXQrwlaKMLu61zjUKgKujpXJMrhpABsQUXznWsQC4FlsF44HhYp7KTTCEIhGbBDu0dQ833XRT8BmMfl7MdJg4rCdmDdsGwFhpwh92CatGADnO9l40Aghy8gfEmBFF+9pnJqU8AI6/FnENDB6HfmANWJQ3DoADboWQA38xujKcNMd/AhLUOTcBSPnlxdx7udWvy/qkAF8pyujyniddqwC4Sdop+3LXACsM4iBXKQCu5ZbxADDXxbQgLV+uVvHqImfaSrnhahWW6CBA6tWvfnVIRwGUAVAAF/88TBpTId8ufoVMhhz2t9122wDUsHNAGDMpMzf/QwAPq8ZXCwDD1onKlBzXPsmNgTMpN4A+JlSsncHT8crwh/WKJsJEtzp1MVi7t7zlLav80qYuKPGJAHfOjr6Jb3dicSnAV4oyJlayw50FwHWo7HKpmTUQ3ULGFWTsia4m447pcnsBcB1oG2sECPAfmrfwCdt+++1XmRXnXZ/B6wNuHOw5jka/K/5YAhDIoBnbi4SJcxxxjuhOQs9Meo6x3R/xmyjHucT5wN3gi+t8rJ21VZlgcxLgmy8f370chHmb72ETs3kO9W6rDinAV4oy2rq/puUWANdUY+X4eWqApUYOzOgDjH2TaomYyBufcrBaRR0VABc10fIn0x0z0zwjWjyU8nXx+8pRol8an7Z5ighPrCnWL0fhAwjEzZvaZ4pWj6b+fDnqNFWdUoCvFGWkup9ZyykAblYNlvO71gBXmuj3xoLDOkTi6kdd12fS9QqAm6SdxPukZNhxxx1XRTcmLn5icUyH0kM0SYUyscCWdmLCmD5FXcZVFVq61MhimVm32mqrkDJj5AGZbBQty4fxuOOO67xGWEtJhOU6jJGtnVci0wumAF8pyshFPQXA5dES3GVMjMv7unJ7IFn0rQgP1hmWG1YZ20yec5IC4DpuDXm2gDj+VtH813YV+HpJi8Hfqy9iFuSFiak82q63F5TvG/p8OAdc29eetnxUPtM8MNUVra89ANyco6un1WeK81KArxRlpLiXFGUUAJdCi9OXAbDpS/nO8iHuasyZvsZ5nAns6uP0q9JimdjnGEBWANwcnhcmJ074WCbRlW0JEyBA4jo5BVHUvV/RqVJT0FWT3HJ1y3ecDg0zyhTYl1Uhhu/PZEDErVUQMJhtCN9JnZpAkc0337xXk4E29DGuzBTgK0UZ4+rX9fYC4LrW+CPXs8qKLAiCtoqbwyN6qfON37RsBCL/+fnKbOBZzk0KgJtDi0htwbaOGWOGksk+JZBDl2NlYlTmHG4x2SU5jjITAnL8EmLi2VkvYGYqbYkoV/pnYu6zeKZE4gookO8uVeQsMwIfEAyulC5xRQzXKYPCmk9MCvCVoow1azafLQXAda93fYHIcNH7t9xyS/cVWJArSiklEwGXnphsPrdbKwCuoxaxWgDAYDkkwQyveMUrVkVCilIFJPydcsopU/lfyY4vcvJ973tfYNyUyX6/KAJIoLSB0riQOj+wJgLUMCObVZmZrrPOOkkT9DapS1vH6rAlIaYnCZElIGYebiLYWjnd5MYD1OhrGDiLGDYBKbK6BlKArxRlrF6r+f0qAK5b3SMGALeY2Lzbqy/W1fi+WRqQ+TlmMsjtDguAa7FFMBR83uKAisqW/gHwYNocZkksd8RMZZ+XEFARMSqMWcShc/1dfvnlYakpMwSDLBYPMDTQMpsusqOql4ppwGoKAK979x2YkCOOvukIULM4uw6NaZROHYulAnSZZEVRxhDxFh+DuRQN8OrEMbH85KI5gC+HlSroh55E3AJrdMJUbQLgz6zTJGD4GY03Q39Y0XkEmsQ65PiZAnylKCMX3RQA101L0LNlB6U+wsBbt5i/qgmdlEqLPCak1jCyRfoo4zGyBYDznZVmnlkkRt1nAXCjtJJgmyWFRH0CVoAFH6IoBkYD5DiRTgMLYgUH/k2SpFqfMyaXBQhts88AjDIf9H069thjKw07zJqMu15ftwMXcsQBdKJrARCAlp4ANU6nALEODbD1Yg6Kl9QMK+aHG9y3SN/NHnXoGGDmaOyZyQE90RcgazLgOdVJyYVURzCiyiryiAZSgK8UZTxSo/l+KwCuPf3LZ8ldBtP+tKc9rXr5y18eAhaMFfo/7zf3kH333TfkL/N58sknr8qr2V7N+lWysVmAByJAnjf+bvQW+8c4pgzq0thipZ55M3MFwLX0rHm5RDViQIYFAMMOtSWYOAwe85dAgCLjNaB9AJcizTVgkiL4o+/+g83vfPwZKcBXijLG17DbPQXApde3Cdapp54a+nhgA3uuH7O6jkCmYeFKY5J/3XXXhQktVgkjj0hYZjGpB8SMlUCaYDYT3UmgDNizco8VfwBl1g3+hqwZ85AC4FrWOudHprvIavj0u820DxgVD6eBAIjD1BUZrQEmBqaHEl4/Wj8rbWWCNtsv8kcNpABfKcrIpT0KgEvbEvpykybuONazHhSmUkCEfy/XkUl9GhcK1iEAZF7gY7DuXX4HwLCR+n16mmUsNokF5rjzAMVdB40UANfyk+PheMELXhBWQOATh/JmvmpTzCriS8lm74XH+pXljkZrnX8c37kizTVgkDAhufHGG5ufvIBnpABfKcrIRbUFwKVpCc8EgOAPUJskAtoAFEDOBGsSkNPviTBnPlz0qHKuMocffni16667tmJ1YVWjc+NvVz6HBcBNehNm3MePjaM3MCW6FFXLjg71tynAGgYuCuDmwWXSzc0JM9Zxnp9xNjrPOvT52p5vIK5IFVhvM/tZpAC4WbS3eOcyfb75zW+uzjrrrEY3ZwxgYhWRzk1kXFYC44Mxg7VG8NMiijW1LSPJItYmuOI6xTeY/3sXk9oC4Fp6WjFvO++8c3Acj5cQFSgJ6iQbezx2lk8Mnwd2UEQkvfKVr6yOP/74wc3l+/9pgF8IdrTIdBrAYi5qRG8TjaQAXynKaFLnNo8tDNxs2pUGCEM2bC5tUqq+n4lvpYS+F1xwQQjq4i+3SOL+RZIydXYlMkW4Zpu+7u6lALgWWpRd3HJZHE2HZVxahuHjpv1tNiV6BoA04/JSSgshukZnIBFrkTU1wKGX3opMp4G77rormA/afr6nq113Z6UAXynK6O6OJ1+pALjJ+pm0F7MNvKUCVNbxxBBNEtGYIvPbJhkm1SHlPiZiLkT33HNPymJrlSXVEvbzy1/+cq3jpzmoALhptDbhHH4EkLdI0HmIdCLMtpb/wIqg3lHjRSZrQMfGfwEQKTKdBqRxkaZgmSUF+EpRRi5tUADcdC0hsnv77bdf0d9tutInn4VJN2b0Pb0SEybw1jTh+2TtNNuLSAHiAOM2pAC4hFoFnvi/zHvZDeHN/nSeHFj53i16TrgUzcjEPSk/X4prLHIZOqvddtttYWbv07RVCvCVooxp6t7GOQXANdeqPhsLxnoyL5Eaw9KFfRX5Qbkw+Zy3fOc73wlrVbcRoVoAXMLWlU5BCo/cRADFEUcckVu1squPFC9mnvOcsWWnlIYVklCZr82ySgrwlaKMXPRfAFzzlrD2cHyHrMQj+Mxf28FvgzXFvrHkdOGIP3jdFN+5EWHeJC7PRbgvcatKHelbAFyiFhaGnWtWessdASaDq0Ekuu2FK8aKBH2eec67QUR4YeHkWlpGSQG+UpSRi+4LgGvWEtgawIkPmohQpICVZvhRCU6zX1SqfHBxjWMJaCNYsTKPQDWpRIhIVL/5PmPI4/KCrEV8tIwNAt7st2INv+3oJ80RX/DDpDQkze6um6OtNhMBcDdXrHcV9UpN8BQAV0/3E4/i78ZkmfODbuktTFyRyRrQcXIc1tkVmU4DBhvpC5ZRUoCvFGXkovsC4Jq1hHRPJpFEvrfBRemtuAC4bb311mHZQGDLusYC1AAt6xwjEvih6u8BMIABsSC1BTYPM4XNA/pEZboW8Idps1/+OOVEkey3TzkyPW980HMMwgCMTW5niSiO7RI/C4CLmpjy04sh+zXaNmcxKHCmXPYowTptBJDHTrTO8eWYNTUg8tlavssmKcBXijJy0XsBcPVbgoWEpSROHkWNxkwGgqwAM2bU0047LRSKZZI0FtDj9uG7JbXkGmWGBfY23XTTwOIBZrYBY1g3ftoC3fhsGxOUge3bZZddwrrSsdaXXXZZr6Lz+TAPAtB4H7l8AtzaIpUUADeDJg3yGmNwIfkZimv9VBR8l7lwWr+hli7AtICFazPhY0tVz6ZYM/plTO6bAnylKCOXB6EAuPotIZXRYBAVB3ygi8QEsUAZdvv6668P7BrWDKAD9CIoAxKAM/sk6AX6gBqm1KOPPjoER/hU1jHHHBMmWocddlg4HwC0L4rrWm5LUvrcxXuDpEjtZ5byvlnpTG5vvfXWJMUWADelGk8//fQwQPUp1NrC9hLW5s4WTtkkSU9jdhg0XyQtfEkKM6NnqlkmSQG+UpSRi84BOFHwRVbWADecwXQTVs3h/E6QBEyi3BM4wyMO6BZ7Jl0UUycGj0UIQADgTECBNJNROeWs5IBhE2HqWInLleGayjY2CHYbNpkyx+bMakXNHnvssb2wnJxzzjnJfPQKgIut3+DTw8zRVMLevom19DjBFpmsgbvvvjv4i/QJoE++o+730mFf35NptZUCfKUoY9r6pz5P+iJ9TpHJGsB0AbrRfDruaKBr2uz+ltMaXGJx3DWGt2P0MHk5C1IC49+HdFn887Cash7MKgXANdSg3DyS4zKz9VG8jJiRIitrwCx3MIs24Dst9c3vpC+m9pU1U/8IppnB5dt0tJx5UwT85KjTFOArRRn1W6jdIw2oGKIikzUgcS/ftRytI0y5+kIgM1fRLw8+Z/oXzCGgBNgxDefk/40FjezqLDotAK6B9r761a8Gp1DOpX0VIMIDrcMoMlkDZqvMERF4oeiZzpuITs8KBRyOc/bNaHJPTY7FUlvhIk54LO/GvDNLrj1lAIactmPKgyZ1avPYFOArRRlt3mOTsvlOcZTPEZg0uY9Zj9Wmk4QZUwRpjgL4iHSN73COdRTgMThRxG7pH4BPkwhgTrqUiy66KPgZ+iRSp7g3KVv0z3wQ+Rhqr4ceeigEKIoMxprddttt4TnmiiRNEguD/t3EXhBITBrs2rbpp9RJmcPg8fOf/3yl3FmlALiaGhRRt8UWWyzEUkt8u3LNWVezOTo7jG/J1VdfHa4njw//hbqiUxY2Dmwscw4+TtaDeZnoNOapqqvLeJyouKhTDFxukgJ8pSgjF71wQTBAGuCWWaRwAmTHsS4CDcblnzQJ8kwAC0CIT/0QAOAdAJIFMPiz5ie/NuDBJB3IAGD8dq5ymGmd5zdgImjBuc4bJ9KURIAy7pg2t5tMT1rPFEjSN0QBoky448SB/x/gte222wZfQJNqIMp5AkWMh5ZR5ANIHwJKgDBjpSwT2kfQIn3pz6V0sU9ePn0b87RreN75LmobbU6vzM+CRQaFKdza27NaIhYOwFGwJSskP6R0ivbnOwbNg7CSn8Ggon1Hz2633XZTDzrD5c37twSQcuWYYdQRL3tqnda57jyOwejoHCNbJjFmpOa9hHWWtzGb83Ki73Uayy50yZE65j+im6a+ODpFpn9+Qjlnh08BvlKUkdMzZyDDhiy7IAEAoT333HPVpDDqRBQpwDFKTHaAAywOQODdiTo1OQI2gAg53/wWuOAcOd8wQHy2ARnn2gdESpUEvOjrfMeKx2TAo+owbwCnH95hhx0CkzY8bgG0zM+DkwQATn8dfZjdt8hd4IvQt3uKWRnozkRdGYAvHTleWyFuuNK4Bp9eqVkweDvttFMICsHYqd/mm28e/D1hDe3DbGs9W9eJ0cRRt8YIZulZ/eh7D+A81JRn9mKGI5KGfRnCjmgaovbdNvuYxRyHVtVQk9JFQP3WVFu0gZhOhJmPEiDGw+zFpid6pTcPOZ05d1CnZhiDOhXRNEmno66ZyzadgU6P2c/slXgBzVZtN9OaJDoK4FhHOuvsatJ1ct9Hj5yto/nZIBOd2QE4nWNdMXjRqU4xd52mAF8pyqir2y6O00d7h/TBsw5YXdS37WtgXwzumJ24PqZ+YxyAMwYBEcCDfpb7AXMrJlofbQzTVwEfTIJAmf7ZMUgL5YoGl0ZK/wXYADKA3YMPPhi2AyMRzIy6f2OAfh1BggAwRsR3e9TxbWwDytyXySCTaZxkq4/na3DMsQ0ojQDOEn8mfqJwEToRvBq7IpiFIfQxfgN49KfPpzfsm2uqA3ZNGfSHDDIu0qtJClYPMFOW/Z55lhu+54NCdywRs7iSKK+3AA4tTDlYDgMCOtODruFWEo3gWAODF8nCwWYnOs5BoVyzGCHYiyZe3OHEvu7Xg8dHjk51Kk10imKPOlW2F2hwVtQnHerMttlmm5AjCdgww9XxjYsAY34wE3PPdZ7BPulimrrqTHVoBpzIvOlkfdcxDqcqGHUNz6POsE8m6BTgK0UZo/Q5z22eB4OmfkHfIt2FQVF/EyeEOX0axNv4c4+AgPsHRP7lX/4l6MRk2kA/SrwzQBhmCAnhOCY/wAEAMfbdcMMNIS0IAMdioL9iLWAGxNjpm4AXfTprkjHNdxN155x//vkTrQvAovOx4N5J5bmOP0CEmdyntlUn1zemul/sE0BkbAAkTeb0o/oA9QZiTZCNH5597z1/O0wb64/xGmCMkzdjl7L1LcoAKhENg2IC6b4jyFQ+33V9kHQtrkv084A0cAcgIyrcm/tRrwjO+LwxsWIyWeS0hbHNdRyn/3euvs0+/nKuHZnSYdbQtU1oHTuL9A7Asfd7eAErD4bGnlWUAaEDcsr28JgpMteY3SyquFcvk5fEgxcpd+B4VhnUqYG8j4EfwKuZp+dMp6UTG2aOdCw61Fe+8pUhOtmABHDowHzXSTKdjHqBZ9VxH87XQZrd67h1ggZxz8M4IOye6NQAR6d8VkzUhnVq4GFWzU1SgK8UZeSml1gfPkN8lYALoAF48Gzk9sec2Maf98Gzj53R33rGgR7XAkpGifEISAAWABbAAXDS7zDt+aRXf4ADvXqGAA59WBRgjrWKexFADcTx0/Vdfz1u/WJMF1MisAEsMf8BUa4BdLmO62IWXcOYiXFSN+0LuAFwQKpJMCsOIKovAJ70rcoHroAaf8Cge7TPHx0BjwgX/QdACwA/+clPrt70pjeFsTve57hPTPC4foePMh1HAegiYIzbUn+6z3E6r3utXgE4aNYgitaEylOLB9k1zDTWX3/91ZwiU18rh/K8tO4Ti9mWTr00Xl4mSS9w2y9Far16znQaL3rRi6pnP/vZq/IM6fx0RJa+eeITnxj8H9DoTBY6LgMUOp1ezUjp2MzO8zXJWTh1/XMoj5khdsb8SF772teOnBjp/OnUROpJT3pS8DUZ1qmBb1inGA2DSQ6SAnylKCMHXZQ6jNYAsAqwAGyAEAGOgJQc+0eTbyAqslmj7yrdVjpg+tT3AoxIG30m4OqTrkyqmZU33HDDYNLUv/ZNlgbAQfxu1kAKdLQtHhRmRJRo04CHtuuWqnyMkPv7t3/7t7GzklTXUo7rRdq9j2wUJu0lL3lJ6Cx0Zuh7AM3ziJVzb2aT4yhx1LtZHVYOQKH7wdlxSl3nWpZZ+cYbb1z9xV/8RWAJYj2BXvr0Z7aOAWbiiDpl/hglOnq+qVGn9B/9Fkcd38W2FOArRRld3Gu5Rn0NGEf4xXr3MU/DzymWi8Unx2h1jKl3KwcxyYMDTAhjKhBgj6WkC/DrWlhFYwDmcxZhpp11DMiegUMxij4Z53A/iwJXOldD8Rcw8C6SGBDplNnYLKermRUdMhXQafRB6ItemSeY84CMYTNqvAfMG1pf5zJIx8f98VMnAKjwuTALZxpZFmEOYiphbgFUzJx1ZOP8TJn4DXpMKpMiV+kUoMbQM8/4PQ9JAb5SlDGPey/XHK8BLDHfq0mpOACTtvpFaUS8H8AjE2sTYfbktD9PwcQjVfS/JnyDYI3PMYIngl/7jNn6Ga4Y+gK+ePoZ5cASwLJJtH5dH4z9VA52lM+hPlmwAgbQxFMfpP8BuIA3Vjpg0oRdn8YvzrhgQu866inog2lZufF71KE6GSewi7NI1gBOKDTT27jOfZYbr3sue76w4XGDdt1ycjku6pQP0byEHwad8g3rgwC6Xli+IysJpg3w99zy2YgO/KPOY7JnMhTlrANYJsFG0GmdwYROAX861dFO0imTPZ85Op0E+NrSdQrwlaKMtu6vlDudBmLE5KSzTVZ23XXX6qMf/WhwMYjAw2+TbkEfQCD/r5hrzHtEsFGABP9RaSwAkMhWeZ5MKIEK0dxAJFMk32fWJiSJ38r2B6R4x3wHbkw0AZ15CUAGAI8jUhAQ+trI1DseUONv6J75DfLxNsH2aQwE7oBl/Qp/ZQna9RtcPLi5uNa6664bXGHoX1miUYFZjD/mX8CaY5VvgqmOxlUA0fWZebWFbfQ+2NcBeoCg/moWyRbAcYw0m57VyW8W5cRzsQUcJfueSgRtT6ce4HmLDgWIa2vGmer+vKToeWb8JqJTiY7KfOA8z+NE5wtw6AiWQYBWs2kDThMB5HSInL/NnmOHPaoMYJtOzXy7lBTgK0UZXd5zuVYaDXAtEdQAqAEkiAuMGXAhItbE1zMt8IAfqH3AhQmj9wnIcM6LX/zi0K9yQQAiADHHOYcrCNAh1Yi+FwvkGH0QAAMcYtuAFICDjy+rQu4CmAHABHh1n+7fuO0+ASy/3SPQBIhhxtwrvQLYdE5H7p3O6ddv7UEwcsaDaF2xnb5cW3lMzYCf8gA00cEYPQARAzjYvwN1AOGskiWAg/YlwMtpcNcoTGg5Rr7VeQgMlsymZmW5iM5Gqo6mA3lX9ffiMccN0vVNr60z0WECLZPMel54neW4KKmm1831eGH5OjxgbFqhU4ExOlSMwzjhIM70UYc5HVdG0+0pwFeKMprWuxw/fw0wcwJoQIe+AHHgE4vE/EkAOWDDs2+cNBkH0AANIMIEB1AB0KKPlqhN26I/t+0ml0CFTASAhz8TIpN8QIjpD0O0zjrrTEwvMn+t/bEG9AOcEcCMiRQIw9ozudKBwDL3xMdWvw4ws7AJKLGfuZVrC9aRGZSu6cIEXBQ8P0CYxHZsG6bNd6lxtBXds9bob7CcABxGj9UAfogAUx2d73qzSpYAjkL/f3v3/mxLUd0BnKr8kp/yW/JDKj+k8g9oEvO0TBWlqaIqGBJD1JQEyEUELhdBHgIKAhEkQoEQUcFXAlxRhKiIKCi5kgiK4SEvA/KQSEUePhKDiCUValKfJn3dd3POPvvRM9Mze62qc/ZrZk33d3q6v73W6tU66NrEjAST7zJmrBQGGqRGU5uYNSpbbZjqIJGNLkU8hA5nM1dBl2Vp41o6WKS4pGxFrk0OWBC6mriUIF8ldJTEOHR1gwA35rZt25pXvepVyZXKSoNg6SNZ0Lg8WYXELbP+6KMQC6QBWdBfIQzICSsdsoJUsFYjJo5hrWOdco7nAoHxnc/ChBAR5I4LECnkRhxCeIeVsohuFtjpbzz3iCtXKVyyRZ6LOLsv4YJMmRi6B0isPpgrWZgLkqzf8hvJLlleGdf15zjxcNy0+hyffQ87xyGLecUxHQh1iRCP6ggc1qzB1SrMrDnuoNYyTpfLAytAtlZRtprIJbO6WVUfohM45JBDOllt3WX9tEEDxiqWt2XLq0OGaYn8hluVoQT5KqFjq3LG7/Uh4NlguDjooINSfCjCxmWHlCEkJivIA0s+gqDf5MLzWagRjwZLGisRkofEifXKoQYsRnSxUCElXIEC/5EcXgLEA9FA5BAY1mvuVeUYgljIwHJYuyCCwnJYXIpqkDkAACAASURBVFeVVgkcd9AiM19MVcCkhlSraOCCr3WyfYgHdJHgfy5fMUM1Y2qlD0zNWPoW91XAKbz6IBvqb7Zs9tzX9UvfA8TJ/e2CQG1WdpYI1vO2MS1Bvkro2AyH+H4YCFidPRkz1XWpuQa79kCsWkeWNIS3dkGKEe8S0iqBA+YilhXm4EWOLwHAMjrMksQd9CFiqTSAeUWcA8tHNv9qOEzkG4kZniXTfQjSUoPl1SyOqxxG4k9gnU3tXeLCHcDsPwYREsFN07ewRrRdjhLkq4SOvrGO66+GAPeaOPBV00wsUwqWO6thWfGGJCyF+mxGllrFWMKyKea5hLRK4PJqjnkKqqEiGkzDtQuTNatWJkVdllegKnP3PMKiyVTLLc1cLuiVed5nllHBsGIeuO3EWSANLCW2PhIrwMQrDkKDYx1joheLYfWM+2TGw9Qufg2hdQxLR14RxeJCPz1cAM5XBqt5WRLFByif48UkmHUavPoSM17xeOqWTfHqr7xiG5RTrAgXBGuOQFkTDvUw+UBU1FlHggiKXxFXYQWq2DZ45Vg/WLA8wh5GrKrqb+brGDjAfVaQfl84LXJd9x0ubVu+5imT51UH32YfU4J8ldAxDx5xTN0ImEzrY/QTXYn+3Ng2Ga/V1bVLXEcsmz60VhF+VdKyWQ2BM1CWWJXR1Y1TXmSqa1mEwLEeCXZFDpATDdtn5Ew8RF5RwyrnT+xDDmx1rFU7VueYkXm1Gsc9suLHH4sZHBAQwa4CYhFBJE6shfMso0Z4XVccFLc696DrWSnlWMG4dCA4LIZ9CdKFcGRRXiTKwI/A+UPcYKn8SKd6wQCB1eHmDkS9rPbyp06whkfOB4UIOt6rmDu/WaUk9i67kpFlGA1ZEGIrsGoR7Tiv6GujTCXIVwkdbdQtdHaPgP4UievCWKD/Rt7EjA5VTK4ZIUyMaxNGqiOPPLJoJosqCBwrBUuMjmtaWCD8XpuwJLHIlAhEXKRu8xI45YKpcnowWR645AS7WuaMoIk3tGTdjCC7lrJ1j5sY8UCqiCXUVuK4R1bncOWy5Fly7ZxMYKz8MWi7HjLE0kYQEa7JTPos7Raf5zgB5iyCAmp1Vn3cb4G+p556arIU5ZWNZr5cu/CCBVIqPk5ZEVOWHERN/ZFibVWKDHVUN1ZPWFj9NC1In4fZfn7ctbC03PyAAw7Y3Vk7n/VqqKIT1Qaz1XGjevitSysjy+rkarWNyrTKdyXIVwkdq9Qhzq0LAf3PYYcdtnvrqDZKpz/Xt+XJYxvX6EqnnHae8Vn9TldlmbyOBZDGk5JSBYHj72fZmBbkQKOSG4cFozZhSWI56lLmJXAGqowpa5t4Cm4sJnJkjSkXAWFlY2lCMvzJFYeEcH+rGx2ZdCFnSAYyh4Dl3DtIBkLCGoUEeTVwI28wYmWSMJJ+pFfZEEPkxyDPQsgCRRyvjF2L8isn4XpG2NTPsn3lRCzhxErHiuhB5Cr1HSzVF07IGHw9rOrMquaeqbtO0gyROEccBJLLmofoIYLae1415jhxWwjzEEW7mxWvKVcSi6M6szR0JdprWzP0EuSrhI6usIzrdIOAVaOelTw5LHVVfbE+W78+lNWm89RdffCHWkSojRCZ0lIFgWN9MGBOCiuIAVVAosGd+8pgh3QYNA1qctVwcRkoWJzcMC5AA6dZvYGUlcN5OmyBma6FtCCFvjdYO0cjFquU42TENLEEaeDilwyu09Y21zXwdynzEjgYZUwNCCxxxENqhSXywLUp1uHpp59OMy/uv9zws8meW1U9HauuXFA5IaFzxXzpXOijx29IjMFZ/h3lQFAQIKQN3tyIZnp5EGWtyoGn7nlOQNklrtODujrBOi/qELOm/Nym6gBP7QEG6igucDJ3oWORXKJ+MJjMpwQvbdlv/pBWdXfdTPKcCwttb4iC7E6S0ck6eD7lQjJJ0B60LRj4Tlvx3sTOe88nyzGcDWLaM9IPv0kx40YYWZZn7XzhWiYZbUgJ8lVCRxt1C539ImBM1I8Yj/RNq6zq1o8JieEyNY6OTfQN+g7Wy77F2AHnNmIZqyBwSAE336QgDAZBnbsYGo0MMWD9yKTMzTFzZ/3QmBEWpMBAiPDRy3LHGiLOCKFD/Fh5DA6+dz6Lk2v5855e1iZWFm4zpI+rD5mZFGXuejXqvAROAH1OWjhZ5q3eZ1K10XEIyLIrkxCdnAl8I935O6Rax9KlIFDa0DRBn7cMMGtrtRgrpln30MS9hqnneCNBUqbrhbzmGLUca8n6yRps0oW0GcBYRr16/ibJLrKNnGmndG0mYhhZkduQEuSrhI426hY660DABNxYZ0ySC84Yps3MWi0vPMWkhuXfxIonxHjXR7hKVyjCiYFnmXGwVBktgEPe2nJNV0HgdPQsEpPCmpP9xciWm8AMiWAhaEgd6wTLh+2YWJYc7zwNmjUkW3K4r8zMkTmb9+Zs8EiOc8xokAaDhUEFaUQUubzM5n2H9E3P6j00CN5mg9RkfUq9n5fAwTRb0Upde1oPMgfvZYnPtD6fEXFYuwddiRmSBQM1ijbWNR4lcPCszZrcIM3cxnkAMbFC3s2aWYGRNKSf28EWdnmCJzURMse1zVqnP5i03pqkbSWeC89tG22sBPkqoWMrDOL34SOg7+WdMo6J+dJPmJh47nxnMuQ9kudZ42UQ+8zqXcOq8C7uAF6BxDHodC0misjbNG8oWY7eCRxXCrIxbdnREYuN4erQ8LjxzDgQMWQO2eL2RObcIBY6JIwepIy1TOM1GOjs3UAzdKZVnXcOyjer1/Dp1bjpc45ZimB1n1nj/GU3ZL4Byq5sXcYOzEPgDExmWB7wtkSjVHf3rmQDVXZ657HWlaqbBQmsPDVKxiOTlBrLuFGZLFgxAZolrAGs4Nq0AcekzGDjmffZ71zxBhz9gT7A5MvkzKTMZ8+8SRmx6MOEznezOmwTLs83EllaSpCvEjpK1yv01Y+Aya/QA8YH4UJIm7HSc9FGW68fkRdKqO8UeqFP6Wphg/Hk2GOPbd2I0iqBQ3q2mhEjQQiV1yxmBzp2A4BO2qwbIeG31/m6IYgY8mWmrsPTybOkEESLDmZL5/M9c7XkQdDxBgnfswBwkfrM5EqYlrMu59GRP6cDJv4hMPm8ia9be8t0zpU8Swz6SOksk/qs8zf6DXasIxY1iAFj3USokePJe7fRuYt+h5hPk+VFdSxyPJLuHhNxJh4+MycdIBJsBa1FIDpDn812/c7Nh6jARoyWdqOzROit+NVGTRQQUi5WViTWShMD7xEW7QuW7pVJCYtvtjblOmhj0xbq/Futr0gWd+ZWAj/Y52cT1p5FqQyy28FzygXkeRcPqH1zTTjO66TkY7Zq++5hGxbqEuSrhI5JTOL9+iHAIJFjldev9i+usb7Y5E5fOhmL/OIjV/tGv2Xc8NdGzNt06VolcAa41772tWnA02Fu9GfAsqBgkhkbRKdz0cyKaZmuVJefuXi6JBsGu/33339DLDO+mL9kvCVdm+4lostaxcLBUqLerJ1bEcpF7weyvkqA7qLXU7e8UAA5QOBcH0Fg2eVCR9BYZs1uufIN/u4FTBA7uDie+x6hNfnwGVYW17Ac6VSZ1c0EERyTDxOcnHtPW/Idcjhp1fW9QX1IAhv1r1VMErLlrmQZS5CvEjpK1il0DQ8BfdjQc0i2gTovHM7Bgl9yjGHUkM+U19CktCtplcCxFskxZiXaZn8GP8Qjx8J0VfFS10E22gpg36iMrDUIwGZ4+h5JMEAhI6UEIWEBRVy4n/LgjFizYJWUri1OiFWuA8yQDyQMuUKo8nJ0cXIWuIjB4qpH3pAAVkiETMwWwqY9+44FWmfhPLpYkpExu2EgfJ4NwfgW2LDYbdu2LX2H7JkxZtHG2rAWZf1tvE5aNdvQv6pO96gNUlyCfJXQsSo+cf6wEdD3BIHb+B7y4umfuFX1zaz2y3iR6OEBEIcrjCt7Uja+ajvftkrgzAJYaGYJ4BCCyQFr1vE1/cZqaCDI7p8uyiZeyIA/S5AQbrvpuMJZ52z1m5QYGqm8ZEiMGCNEg1kasSslXN+uYUbTlXB9IlLEQ+lB5NqEswcUKeOS9qCy1nn4tVfEj3At00EMvix0OgZxmF7N9kxUxHSpnxma54JbVrC/9BjM+lLXeGacn8m347WxLt30qSIr/kNQtdVaRaqhNiznJchXCR214h7l6gaBecKXuilJv1fhzZv+yyXSx+unLIYySbbow6Rcv20yLgwjn4un6C+MB/p6YwFDg5AifflkzHY+Z/I1X7P0a+sEDiCzRCUNgBkAn8UCHX744QlccTBAQxi4s8QYsdaxghjkdcRcTrkzNuAZCHM+OCRGLA59mDayQQeLCEuL86SBEI+EjNDFeuIYcXVcYlyEyuH8PGirk8BQ1++SfM6ziAGGZhelA1fFVCBvhHsW8bBysKQgwzAtST63Kh+3KJJFtB9tAjlHmrx6mLVjcVgIlwGWOI4ZnkV0OkYtf7ZKTHtGDLVXuHmlO8d45bbrc7bkpQv8fxvTSehshiRI6B//8R+nGEDuYO4FHR7y6xl64xvfmKyRnj2LjQRdW4mq08yLiODh2TVx8BzCTNylEAFkWKfKiokIswSLLczxiN4L6LaClSdAe3Kf9DP6E1u/TbqpS2FbgnyV0FGqPqFnmAjwmBjj1ln0mcZ0/cdGf0gb4xGDgR1xfvu3f7t5yUte0rz61a9O3hB9kv7GH9eoHYP222+/5rd+67eal770pWkXI5NrOuja6Bq+y3HjbdyL3gmcSumwESaCdKiwGDhEysAp3gp5QKh02KxBrD+sIczEWHR2cxkArCbVkSNoOn4WFPq80uemIh7ZHcYiYhB3vEHCIOo7Cyl8z2/umhZbTOaukt5E2RCmrmQeAqcsyq58QxOWKPenS0wRB6RxGREbh9S1JchG13iUqItn0vY/SJtniPvYs+j5RVi9cvd7BpE7ZMvzLhbRRM3zClsTtfzMWkhkMuV++c6WOchZtnR6fv3uO+/NkhE7xM3zrJOlw7V1wsu4TbbCpgT5KqFjq3LG7+NGIAjcCwvSPOM4wVZ/k/HiJvEm3JPneu87v2VxzlZ68+9tjWdVEDjuq+yCEuvD7UQQMYRFHBHyZkbOkqYjRlB0/Dpo5+isCaB13sBm2vSX3WM68qxP7BLLme/8jvAZPADOYmLgYMUzyBhccqqRyVmNwcLA1KXMS+C4AVnIuhAxgP5KxDHCN1vDuii7a3gQxaZpA7OkrYdw1jW1X53xkITVkqXtla98ZfMnf/IniTTl3FTIk0ma9slKidQhe8SKXW4MxI1IIeI85NpM1/dIm0mWiRtsxA4Szz/3Mws6i5zJHUs84QpXHtcUuynvo3KVaK/pAhP/SpCvEjomihRv1xABfUZ+rtaw+mtT5SoIHAsXSxYR+6MjZ9ZErrigzMh11mbdMtMbIJAu75kvddoGAoKA6bwROYSMFcoAQB/yYwAw60fyEDiWPO4ehI9rh6sFmdT4Wf0yoeC24X5VhizOVbYuZV4CB5uMaS7f5OwBhll8j5zk3/Nr/n3WK0smgm3Z9GaLOSZnN3RNf/ZdJkcG4nwvZ1239G+um7e+2kg3vLTBabf0NFa5Hhvp8N1Gdd/sWN+bzGyWwmbWeX3+po6e4X333bf58z//8xT/51lGnjyL3M6sZCZkXKjcDBbdmBCpq2NYyz2XJmuO1b68ei65oD2HrHSs9c53rGfVbyyiFp8gbc4XD5pjVxDIvffeO7lE2gh9KEG+Sujo8/7HtftHgHEjCFz/96HtElRB4MSl6GhznI/8KaxgLCJmyXJv+dPhi0MyQOS4IQQCAcxiQNWJ51ffs9DRhxzqtJE8AzHrGpcovfl4A7XyKINjXc9A4fp+ywM4wid2r4tcL7luXuclcMoFU3WFlUHszW9+c7JisFrw67N0Ici2JhOTxM1kELSzBbzsA8utRczoHC9uiLVKjJ0EviyQrCMINYwQZJjpQBA6vyO/BlquLwGjzkeykV+DOUItzgy+9G5lCZvEo8R7JIK1Zvv27Yn0y8OmLtz6OTGme33wwQcnrFg2tQ2YiIsQb6UdwthxLEsmAzk1iQmGRQysRsgGSxHdSIWJBhej+ErtMcdZsjhzDSJBWU+Junalw/1EluDhueMaR6pyDiZtQ92JurJ4Z4EHvIhX94PVDR7ahnbiGScmVQYqxFnbpFP786fv0I5zuhDPtetz7SJJ9JSWEuSrhI7S9Qp9w0IgCNyw7teypa2CwCk8ImXw71IQtzxQLHpd1prJeLhFz1/2+HkJHP2sGMitwZR1A0lhBeFSQgoQEOTUAhHfIR7irRBeFpSck8z3gjhZg5yPeLFOIiwsK6yWgspZqFzHgCoAFCFh6UQmkR7k0HF+t0pKuVgJ83J3A/e01XBZnBY5D2lSPpYZcY45Rxu8BNEjm8qKEHPZw873iBgSCxdENW9T4x45B5YGY+46eLkXiAp3PAuS+sIO9qyO2r9zWAMRQlbjV7ziFQmzRepT07Ewy5OtGsqlfWr3bUkJ8lVCR1v1C73DQEBMeA4vGEaJo5TLIFANgeP2QAiGIlw60xnzuyj7IgSOhQchkRfOK6sbVxPygCiwkCAg3K0edjFHYpCIDgCRQWLEDhn0kBxEBelzLILhO0IHIkIncobksLghdaxVjkOC6FIOx7GkimVEbggr3bKEOilY8h/LDuIoobQFNUgqK6HPLIvIGkHQWHoQUZbJHLeJcMFF2VmG/Iak+p4un5EzdUZ4xVayDLE8EQSaJZTr0PEmBwjd7//+76f70LWbPhWq0D/tjTWgBmFxYwHVLtuSEuSrhI626hd6h4FAELhh3KdVS9kqgdNxz+v+MTAicEOI9xFXxzW0VbzTqjdno/NZfQzy8wpioqwsasiYuCDEDFFDnpAX5AvR4hb2veNZlRA/xEucIRLjPWsVq4pAcKTDeUgPkmLgkbaBPqTM4M1KyYXmOOcjJq6jXfjsfnPdIn/ioKZjyuat5yrHqQc3JzJrCTnipYysYIitsiK8HhYkC0FliVNv58FUXVgpfcfShnSpP5LLCsnyo34sc+6F463QhLPvkWqxhNy5CBwya2m7wH2W0KGKsAi4wLZv4dZGoNuUEuSrhI426xi660fAhDIscPXfp1VL2CqBQzSye2yegiIH4qn6GMTnKV8+BsGZjLvL33fxihQsMqCzbIorU16kQ2wXSxjSlC2IBtkcy+fVb2KIWMjEFYlX8iqGiLhPyA0Rc6SjyFaNvJCBTuQjryikT7wblyHiK6bJ56xDXBKXYh+irOpHkFsWMtYaWLEe5jg1ZJTVDX6EC55LVHv1vRjBjItzYameXulguUQW83di/2DHpepewIawzCFzXNfuQb436ccB/oORSUAfE54MF1LErZ/bZ/6+9GsJ8lVCR+l6hb5hIYDA6cdDxo1AqwTOIJYHpXlhNJixVtQqysbK0tdgtAymrHDcdLUKEsPC1Rem07hwN3P1TksmnNPf+yxuEEldRiyMQRQJDJC3WStil7lG3+ewXHJB9yEINvLWhSu6BPkqoaMPnOOa9SDA2xIErp770VZJWiVwyxSadYLLJVt0ltHR1jksIlZyzhrI27r2KnrFZcGUe642Yc0yuBq0ahEWLy5iu3N0LVx8tcSMlaw7TLmbs9W3pO6tdHGJG9C6kBLkq4SOLuoa16gXAe19cmV3vSWNkq2CQHUETmXMlKW2yFaJVSpY6lxlMQBxgQ1RWHSkyVjUItpmXaU44a7syx09q24GUfdbjGBXIrZOTNxYxcTH/e4yzlXMqGTAXUkJ8lVCR1f1jevUiUAQuDrvS+lSVUngVFL8HFdWG7maFgVRPikrJ4duGRGMz0UtrqpvcV/F5nVlGVmmvvKHIXFtBwMjsoibhSC1x38ug+PkOZkYW8nbpog5hCdcu+xDSpCvEjraxDZ014+AeNywwNV/n1YtYbUETsWkcBC/1caWN/MCZwWllBIGgzEITK0+tcqyL3FtK1m7tIwsW1dB72LSlBXRKi1y5XFv5718S+uvUZ8wCcmd5Slsw8ou/GLHjh29TA5KkK8SOmq871Gm7hAIAtcd1n1eqWoCBxhpF1i/+og7k/Xd4N126oGuG4CUIFxZAu+7FitZxZcNiRCbQCC+SEGpxSBiwmwN9fKXv7yXhNBd3/fp67ECWygCU6llSixgsZJYvkIxlX2taC5BvkromMY7Po8bAYYGVucsck56rrL4bezW/VzXdXqtnsC5GVI02MS+ywBosW6IY80rYldpqFKRSN0hZ1tXkjFdJA1KV2Wb5zq2v7IVGOuhOiyz6pR1yGpMJNbkRJoVyWX7INPz1LntY2xtxa3Pyi1XYE7nssh1JZXOmIp5s1K7LylBvkro6Kv+cd1+EGDgkDsye6smCZxQEKvAkbyQcSEwCAIHcgOf/GtycbVpjbMqksWNi8deoGMWD7aBk5u6TUy5Ia0EhGneC3PIuMrTxqWKyHEDyh1nP1Rth5vVTDfnkdNuLSCxg4ZONCfzndxeyq4M4j3XWSTHFq82L6Zy6LGKwlRCZGQ45+frE8cS5KuEjj4xiGv3g4B+PMeW6m+zt4C3QzLxkPEhMBgCB3qzC3tpcmuKGSpptTCgmr0LWpexvYZA/y6am3raBSFjavAoJQZUlhHuWm7bPDsspb9vPRIAW0GLnCF0ZsAICMstqxqyhpjpTC0gQVI2EyQk8jY1aZV0xhShg6lJxiSmLHYXXXRRwjRvR7YZrl1/X4J8ldDRdb3jev0jYLcT/Q4RA5eThuvb24g17b/GUYJBEbh8u7hZzLg11rxhu8DoRUV+NC5EAy1dYnIkVV1H4Q5EsqwMZeW0r+cy7qyMqe2iYIrc+G4dhNUtx6KIOUFY543tYgG1mGFd299m7WMaUwtg5sV0M51tfl+CfJXQ0WYdQ3e9COh37QbDOm0rRKmJbNMXMk4EBkng8q0wq5AzjunYnpPikwQxC960hZStiwyM/riy7r777mRWZmkzi3cOd6n8aGFifgFVmNp4XXD5n/3ZnyULEkwtSZ+FKUsba5Ot0Oyq4B6wUIXMj4Bt0oa0uGP+mq3PkSXIVwkd64N41HQSATG1dgqS8opBQn8csW+TCI3r/aAJ3OStYEG655570qIDhCOTOnFz/pA13/nNwgRkLluYkJYuE7ZOlrvW90zwVvJxUYnRMpObhamg/klMa61X7eXSVs2cQ4aJQAnyVULHMNGLUpdAQF/9mte8pnnta18bueBKAFqxjtEQuBIYS9g6tjitRXHhwvM39A3UF613Lcc/8MADKQ4zrJe13JHFylGCfJXQsVip4+gxIaDv+PVf//VE4MZUr6jLixEIAvf/mCBuAqbHton4i2/55t9YFCJgnLs5pD8EuD/MokOGh0AJ8lVCx/CQixKvgoC4UAvxTAB5QqTdEsrCKyVZuJymIeNDIAjcxD3lhpVTal3FZvce/pB+ERCzYkFDuPX7vQ/LXL0E+SqhY5myxznDQgBhu/766xsLF04//fQU122XHcRNLK1V3N6LiRMffsYZZ6QV8Rbu5fChYdU4SjuNQBC4KUQ0bAlF10lY3Ia+z+vY7tftt9+eYjcjAHlYd7YE+SqhY1ioRWkXQUCaHQvGpCySsNdnffgzzzyzqRrjmgUOmfCJtZWKZ+y5TjcFZCQ/BIGbupEWNMg5ZcXluogtnXbt2rUu1R1MPeWWk9olZDgIlCBfJXQMB7Eo6bwI2IlIvkjWNFa0VfazltrJwjMkkIVODrmQ4SEQBG6Deyan3DJ55TZQVfVXFiuMYWeEqkFeoXCCke1eIR1OyDAQKEG+SugYBlpRynkQEL+Wt5uz40tJETsnRdSb3/zmlLNzXRLYl8SwT11B4DZB36BpD9axiv0iJTD28IbUiwDLqNiV2Ii63ns0WbIS5KuEjskyxfvhImDLuDe96U3JWtZmLYwHXKpHH31089hjj7V5qdBdEIEgcJuAadbDlaozHaNYsCEmIqR+BMS7yF0YUj8CJchXCR31IxUl3AoBz/xxxx3XfPOb39zq0GK/i5Gz9VbExhWDtFVFQeBmwCsodGxB5GIfrFpqc/P6GZDGT0sg8NRTT6WZccm9f5coRpwyBwIlyFcJHXMUNQ6pGAF7fltZOmthQlvF/9a3vpWIoxQkIXUjEARui/sjL5yHaSxig2Mbq9e8n+RYsC5ZD+58KQJC6kagBPkqoaNulKJ0sxD4/Oc/n8Imnn322VmHtfqbECLWP3nlQupFIAjcFvfmiSeeSLl0rE4dslhGboP6IG7DvYtWjEXMYt33rwT5KqGjbpSidJshYIJt4VINO7FY4GZxgzEwpE4EgsDNcV/+93//t/mv//qvxusQxS4TNjW24XzIcBGQZNqsOLY5q/celiBfJXTUi1CUbDMEPNcWLHBh1iJXX311GjtqKU+UY08EgsDticemn2xt9JnPfGbT32v9AelkPYwdFmq9Q4uVa+fOnc3f//3fL3ZSHN0ZAiXIVwkdnVU4LlQMAalCrrvuumL6Simym8MQx75S9a9ZTxC4Oe+OThWJG5IVjttUqpAvf/nLc9YyDqsdAXma7Fdrp4aQ+hAoQb5K6KgPmSjRLAS+/vWvp6S6NYa4WPAmvYi8oSF1IRAEbsH7MaSVgB48uyyskrF7QXji8A4QuPfee5sTTzwxWVY7uFxcYgEESpCvEjoWKHIc2jMCSJv41i7ThSxa5SuuuCIZMBY9L45vF4EgcAvgy/p25plnVh9ILvXJpZde2kgZEjJOBC655JLmox/96B6V0z5rnMHvUciRfyhBvkroGDnMo6qexWXcpzWLvKEmjWGFq+suBYFb8H4IJL/yyisXPKvbw7/whS+klbN9LkPvtsbrdzVxjRJussZl+dCHPtTccccd+WO89oBACfJVQkcPVY9LLomAvUiRuNpF//KpT32q9mKuVfmCwC15u2vdn/LJJ59sxL7Ff5JiWAAAIABJREFU1ktL3tgBnabT53rJ+xe+//3vb+SQCukPgRLkq4SO/hCIKy+CgP765JNPbmQKqF2sjpVcOKQeBILALXEvWD9OOeWUDWdNqxAn23ctu0jCIG6G9LGPfWyJGsUpQ0XArhriU4gl/5/85CdnVgW5f+SRR9KqZIHTt956a3Pbbbc19913X9o2LuIlZ8K35Y8lyFcJHVsWNA6oAoEbbrghxZbxlvzt3/5tWqD0nve8p4o8cNMAGdvsy/yd73xn+qf43BMCQeCWBN42IzYaziL2yA4Hjz/+eP5q7lcP74UXXtiwoMwzgH71q199UVqQn/70p82NN94Yge1zoz7cA1l/3W8iP6HccGbyLHJI/KRoW3feeWcaJN75znemGE57q9rVQXoAf95z44jDMYj4zFVSq5V5sn61vS9BvkroqA2XKM/GCCBrJlCPPvpomnyZiOdJvHAdz6Vn2vNuN5YPfvCD6Xfjj+fZLkGTRgP7p3qGEUOx0H4Xty0pr4mbWDYEzIIJ3zmXLnuf5vxzxjJ9hpXuyiDu7Rvf+EaqwMUXXxxW/o1vZS/fBoFbAXb71E3uF2dgnIxJmke1FB/HHHNMCkifN/s261++rgfQQxtbnsyD9jiO+exnP5vi3xB5Yru3c889N7WB9773vek7K5AlbuaeQczkcdJJs/JOdviTiOjwnWdAsUBCChouE7mp5plYTOpa1/clyFcJHeuK/5DqjawhW9/73veS9duzanGSGGvPoudbPDMCZpP5L37xi4nMmajt2rUrLaYTQqG9EM/1hz/84UT0PL8yJugrWOjljvz0pz+diJvnmaX+E5/4RLo2gug3n41pCNxFF12UxjLf6Uey1U15pieJQ8J8bGUNArfCHWX9sNWImQwxO5m0ys1SzVLnwTRILkK+PKx2VcirDc2kzjvvvBT3Nut68du4EEDGdPhnnXVW6qi1vcsvv7w57bTT0iBgxRh3eu54l639XXfd1Zx//vnNW9/61kTkcrtbVt/YzytBvkroGDvOY6gfq7nJFYsbazeShbR9/OMfT2TN5B7BO+igg5LHxSSKp8ZCJQTMuXZuyF4fcXS24hLig6TZAos1XV9wwQUXpP7h8MMPb97whjckC53n2kIonxHC448/Po0tyBxLH+s90shKn8V4I2wjpA4EgsAtcR/MjrJ48PIDJHXHPBmrPXysbmZHiwqTeN4Si3l7XqvdoteJ44eBgBkxi6yZ+3777de87GUvS7FwZtIl5eGHH07uHESOuydkYwRKkK8SOjYuXXxbEwIm7lykhPsSOeOqFL5w7bXXpgm+sQKJMxnzrBtjLrvssvTM87wgXVyjBPljiXcuwmZ8YUFHCHmH6DVm/PM//3MigEJ+kDQ6uWcRSHstI32MAvTRQZ/3RGoq5ckLp9KX8a83BILALQG9B4ir6umnn05neyjEDHigPAybieMEgTJv5ximzY7d7HsP/IMPPph2V/B+0rU1hJVMm9Urvl8eATEqL3/5y5tf+qVfan73d393eUVznGmGv3379jQAzHH42h1SgnyV0LF2wA+wwsYMZImwmpmYI16SryNICJ5xhldHm0DAHKPP951JG3equDaWceQNuaLjqKOOaixSMlYhajkGzsROmATS54/1z3hCP5KIRLquCZvyPfXUU6ksLPHEte0Es+z4lZTEv2IIBIFbAkqbDnuQjj322DQrYgoXUOoBmE6uSj0rmbiBfffdtzniiCNSnIIYAw+L71nVPGxiIWaJ3/Mybg+dmAcPfja1x5ZZs9Ab5286WG54k4eHHnooLYSx0rRNcU2uWm6WkD0RKEG+SujYs1TxqUYE9PmZwK1aPgRucr9rniFErbS4Dpcsy11I/wgEgVvhHrCoMU0bzFgmzFjEImWRosFnZu5f/dVfbQ455JAUcO5YgecIF7O4QFGrkQSkiovz+bHHHstqdr/edNNNu+MVXOt973tfmg2ZeZmRmYmFrA8CiJTOVLvoWnTk2p+/kJ8jUIJ8ldDx8xLFu1oR+Ld/+7diBK6tOjJWcJuK92YwCALXFtLL6Q0Ctxxue5z1la98JVngDjvssOReEmPAKsJdavWQgdbqVEGnyBbr2WYiHxc37EknnZSOzfENjrdg4td+7dfSNQSS0t22tWWzcsb3/SKgQ0XeTAb6FKlvuHJCXkCgBPkqoSPuR/0IcEvmGLi2Sitem+s1pxxZ9DqMAhbNSUtCcg7UyTjwRXXG8eUQCAJXDssUWPobv/EbiXhttjExq5tAcA/UrJQjYiCsJLJKiBXPAyOY1Aohg3fI+iKgLViBaoVYDWJikpMJ11CePstQgnyV0NEnBnHt+RDIC4NYtYwFFiMJzRHTitgJl7GoQRzbCSeckFaD88yYvPPY6Ack77aoSJiOhQdeTeocL4+beDZjjc85Dk7Ij/fSBXG1ui7vD0IpRo4XSDnoz99ZzMAQ4c/vOVfdfDWNo9pCIAhcIWTFvwnu9FBsJR5Ygy/XqgfVQ7aZiDX4yEc+0uzYsWPllBCbXSO+HxYC4iZ11rWIWbp0BjmdTi3l6qMcJchXCR191D2uuRgCJuImP7woN998c0rEzmsjntXiBa87d+5MJIsVDOGTKkjMtHxvVqg63sReuM6rXvWqtKjBIgZeIWMLC7mQHAYFhgBGAStKXZdu71nohGHIoGCssWrV9Vzf6lQkctu2bSldET30h9SBQBC4Fe+DuAAPm9nSou5M59q70uzIgCwIfTMR48aF6kENWV8EzKpZcGtbcaxjtyPEuq9OK0G+SuhY3ydkWDVnzULMeFaQKmE4dtTxLFlRipxZ+YmweebFnLKCGSuELiBhSBdLnEVxLGWsZ8QiI4vlxGoTlrycLsR5xhSx1AiapL/IndAfMd1exWkjfxbmuYYk4PTPyrSQLhT/OkMgCNwKUCNgTNkerlWEu9SsyvLxybQg0zolZjR4m12FrB8C3BZcpxJ51ijySMkiv85SgnyV0LHO92BIdTd2sHyxpCFhyBOLGDcp8uaZQpy8mhyJezbZdzzC5RgGBOTP+GGCZ0z6wAc+kBZIWOnKYs+qRi/iJsWIvHPGHMTMYgokEjljdUPQkDax2oik710LEaQX8QupA4EgcCvcB7MhD0eXIpUI12vOy9PlteNa/SIgyaZFMLUKl5AOf51jNEuQrxI6am0jUa49EZDHjUtSGA3LmX7dRJ171NiSF7whXDl5rt+QKsJyJgbO714ZACx8Y53zGxEThyiKj/OdODrH0S0LgpWmfnNdk0RuWkTO9VjWHSslidg5rlWEMqQOBILALXkfmJYFf/YhHlApSTxwIeuBgM6UW2NWvGQNSBiE1nlBQwnyVUJHDW0hyrA1AogTq/oQQg+GkPZka8THdUQQuCXup5mOrbC2Sry7hOq5T2E6Zza3ICJk/AiIVREvU7vYVs6AZAXbOkoJ8lVCxzpiP9Q6W2igP69dWP/FxYXUg0AQuAXvBcJkyXUNux4wZ3OrhYwfAXEutaQN2Qpt2eXN1tdRSpCvEjrWEfuh1plHxaSn5tQc4t9kWZgVoz1U/Idc7iBwC9498QS1WEI8VBY1rKu1Y8FbN9jDJc8U3Gz1WRbxK/7Eo1h9VlNcivgZwdHrKCXIVwkd64j9kOts0ULNEzQLI2RMCKkLgSBwC94PA6ndEmoRAbBWJoWMF4H7778/JeOcrKGJhJyDVodxa5gZI03nnHNO2qdQULP4GgHLckxpJ9quVaKI31lnnZXSCtgmxwo0sXWsuaxnjpPWQDtnFRBYLVxAO5MUlDtX4PP555+fJjPTC2pcs6/40EmM+nhfgnyV0NFH3eOayyPgmZHr8+mnn15eSUtnWtlq4VxtqYtaqu6g1AaBW+B2GeTk5vGQ5RVBC5zeyqEG2bzBfSsXCKW9I2Cl2HSqGqvXrPjMW9zYvk3OJ6kEpAqQMkB7RcT87dq1K7lADBTSADgPGUMAET+LchAHqQWQu+985zsplYCVZ1a0SfipHPRKY+C960h9cNVVV+2BkY6eex85XDcpQb5K6Fg33MdQX6k+hErUJKz/vDx33313TcWKsvw/AkHgFmgKrBcyUpuNGKB0tDWIgdjCipBxIiAn07R7RX6ns88+O1nBrGBDoljCbIUjgadUAEcccUTz+te/PmVZR8Qk8iQCpoUB2D2B1W379u27g5PtpoCkEfvxWqxjxbMO3OBiJawJA5ctq55rIH3T4jcJQtdNSpCvEjrWDfcx1Fd8ta0TTY5qEbs5xF7HtdyNF5cjCNyLMdn0m4MOOigFm3rQuLUMXPLjCEBFogyerB42GUf2WCJYKOygwMrBqmGAFLtm6y0JWe17Zz86Zmr5syyQYEkxQOZdFyTu5S5jbZM6hO7sMuPuQiZzXqBNCx8/DBYB8THTZIhbVJvh1vQ7N6pXsSryREkOKueT3w0ICL4knCzH2iuSpt0gfix0PgumvueeexLR4zqV0FOblhZEehDHO04SUVvvuKbnIBO+SYBZDNdxgU0J8lVCx+S9iPfDQUD/jsTVsC2dPsRErxZv03DuYnclDQI3J9bcpvaa43KaFMkWrUg1yCFlBjfblbDSGXQRK0QN6bIyz6BmcMtxRgZYpnODqJmOgZJlhXvKAMryYfk2PdxeruF3LjHXYk3ZZ599qjO9T2IU71dDgMULuZoUHX3OA2jRgG3cdLjaI/JlsoB8IQPcptqvpJxEDJsk1NyiJg+IHgudWDixbWLkTFK86ry9mmgghtqqjbe1S/rtg7qR9ZcFcCNiN1mHMb4vQb5K6BgjtutSJ8+h8AhxrH2JSZ8JmzjakHoRCAI3570xaO2///7JNZVPMSAK5DbosY7J58Md5TumZw8gy5lB0P52jhFkjoQhY+KOjj766OTKQtCcg5QJJGfdQNS4rA499NDdFhbnWA3EcsK1xVonH5xzYqaU78y4Xi3fN6gPSRA9bXXdpAT5KqFj3XAfW33z3sJ9xJ7xLCFvJmchdSMQBG7O+2NGIgaI5YIFDbliPWN9Q7q4Ta0M1Pi5S8Ubsbr5XkySQZjVTAwdNytrCQsFKwq3Faud4HJ73rGiIH7ZgkEPC93hhx+erCSugQxKH+FY5zJ1s8KEjA8BbnVWtCEJi7R2u25SgnyV0LFuuI+xvixxwm94Y7oQFnXGAGPJs88+28Ul4xorIhAEbk4AWc2QLrMSriRkLAtrmpgkouEjXggW4sYqx1qG5DlOLi/uKa9SMzge8cor9nJaCG4wxzz//POJ5Hkv3o5k15mgdTF23GNcso4JGR8C4isXcacgANOpPbpGhfvfxGLdpAT5KqFj3XAfa32NEfp2xEpYRFsi3tpqU3GyxpyQYSAQBG7O+yQ2DVlaRCYfOIsS2ky2ysKXid0iZYxj60eApTXvbMAyawGLyQC3PustEc9mEsA6bJGC1aEWNOQ4NRMIkwmfueulCuGKR/4vvvji5H5H+sRhWkwjVUh23QqoptsEQTyn2E7uenpMKliE6c/xd8pDp4UO6yYlyFcJHeuG+9jrK9bZinDenTzZL1Fn8a1Cfk444YQXLZQqoT90tItAELg58eUSXZTAbabazgkGQ4HjeRNjA6vPy8YdcLM5P2R8CLD+WqhAuCYRKO50cZUsXdyr3PsWDiBlcsGx2nHvI1nZeoxgOcYCG+5+JMsK5+yap+Ov//qvk7XPgGE2zg3KKpyT/dLFna8MBx54YDqfXnnpxGFmN76FN1aorpuUIF8ldKwb7utQXwsKjEPCcjy7JnDL7MJDj3Ad8djGjemFeeuA5VjqGARuzjvJyrBsLMKkSdp7FhWrjOTZYkFB4ixW8NkS8kWJGGuIoNM2LXxzwhSHtYCABS3IFUHAWNkQN9Y4bcbsGSljPbMi9KGHHkodtHbFcixu08SAJY1lTedPtGcELxM1xA8Zk55EHIzM8BYiCBcw62fhReyQOpYAZbB5vcHAscrhmiyErIAmJesmJchXCR3rhvuY6ivERp8+/ZfryK1qPNLne87kXBS2Y1LleczPnbHGc88TxEVq8oW0cZVyyZrgZQOCY6evJ4wnpG4EgsDNeX+4g/LAN+cp6YEQL8fCYbAlcsNZoTdJ6ljj8oIFA6QBeBHxQHOJReDpIqgN51gdsB1AdKhm39qUnRck983tRrJfMWdIHOubCQJChvyxyrGI0WExDtcoYqfjz4tlnGMBDQuf2E3uV2QOyRPD6T3d/rhyWKOlxBH7qTzZOuBVvB4CuI5SgnyV0LGO2I+lzu4/y5gJ0UZ/nl9xcbare8Mb3tD85m/+ZvN7v/d7zWte85rmjW98Y8pscMABB6TsBkcddVRz8MEHN/vuu2/z0pe+tPmDP/iD5rDDDkvkDwHME8CNrsPQsIyFbyz3YQj1CAI3512ShwtJWkQMjqwULGqZlCFuZj/HHnvs7pWrCFgO+GYRmc75tdU1xS5J4mrmFjI+BMyMxZhlN6ZZc3bB6+y1Kb85DmHT8codx9WpTfgzaUD4ECy6ED5tEimUB87KaAmmuWPFwDmeZc2M3m+sflLW6PTFwbGyKQOLn/OInHKuta4rUGFQgnyV0DG+p2B9auQZ8nzN8zeNiueZkUBKKpM17yeNBY73eR7dzg2pG4EgcHPeH4OjmY+cb/NKzvXm+GyO9lBwgxn86GLZkFg1r2JlWdGBLyKsMCwqIeNFQJuZN68at8lmaUdYablIl5U8EdnsfIMD68BWx212/tC/L0G+SugYOo5R/tUQEHKxjouIVkNteGcHgVvgnnExLfJQsGxwXbF4sKwRAxxrGWuG2CMEjkUOOeSesnpQbMIiInicVSRkvAiwcmkjtc+KBVYjcOsqJchXCR3rin/U+wUEjFWLjiOB3fAQCAK3wD3jUkLIFhEDL0tcDhZ1LutE3qNSxm3mbscweYs9ku5hXmHJE8dQ+8A+b33iuM0RyDt0bH5E/78Ikp7Mkdh/ibotQQnyVUJHt7WOq9WGQBC42u5IO+UJArcArkiYYE+kqZRwzU7qEzSqA59XxCqF+3RetIZ9HLIvuFmMTI1i8YJVcdr0ukoJ8lVCx7riH/V+AYEgcOvREoLALXifESYB4DUIsodQCjQPWQ8EWIBL5SMsjZgVshIKr7OUIF8ldKzzPYi6N2lFebhQx98SgsAteI8FiNuA3oq7vgWRlPIhZH0QkIvNCmaDfE1imzmxnesuJchXCR3rfh/Wvf5hgVuPFhAEbon7LF5N3qw+RaoRSX+lfAhZLwTkX7PJdS2uSgmCDznkkIVWaI/1jpUgXyV0jBXfqNd8CASBmw+noR8VBG7JOygpqtQOfYgcPkceeeTau6v6wL6Wa9oJwUrmvuUHP/hBsgjKAh8SeeCiDdSBQBC4Ou5D26UIArckwixfti/Km4wvqWap02w+LMt+yHojIGGvNDR9ia3bLFqQPDjkBQRKWM9K6Ij7sd4IBIFbj/sfBG6F+6yjReK6tD7IHWdvy5BAAAK2w+qjPUgUjLxFoPSe7bAE+SqhY89Sxad1QyAI3Hrc8SBwK95n+1QicXK4tSlPP/10ykG3SI64NssTuutBgBXOBtUSR3chdguRcPqWW27p4nKDukYJ8lVCx6BAi8IWRyAIXHFIq1QYBK7AbbGXqQUFXJvPPPNMAY17qrj//vubww8/PPK97QlLfJpAwL6nNpm/9tprJ74t+1bYgIEBWVzXrbK2QrQE+SqhY6tyxu/jRiAI3Ljvb65dELiMxIqvVgRa1LBjx47GKsESyVa///3vJ/cYcnjbbbetWMI4fewIGPhtYu+vZGzmj3/84+aqq65KixUiafTsVlSCfJXQMbuU8evYEQgCN/Y7/EL9gsAVvs+sZWeffXbat/Kaa65ZOM2HTe9ZN7jFjjvuuGbnzp17bMNVuLihboQISKYrzQ0ixyK3TKoZ7VCuQ4RNgl6xl9/97ndHiFbZKpUgXyV0lK1VaBsaAkHghnbHlitvELjlcNvyLNseWSVo6yMJTq+88spkRROnlN2sBkmD68MPP9yIK5IaQnqSd7zjHel4KRpCAoHNENB+WH4n/3xHWIBvv/32tLcuAnbmmWemHURuuummNEHQ7uzk4dxnn322efLJJxsb0SN8733ve5tTTz01TUIuu+yyxn6+WSavld8///zz+ee1fy1BvkroWPsbseYABIFbjwYQBK7l+/yTn/wk5WtjSUPoDKRve9vbmr/6q79qtm/fngZKm9mzcMhm/8ADD7RcolA/FgSuuOKKFI8mJm3676STTmpOO+20ZIWzc8grX/nK5iUveUmzzz77NAceeGBy9Vt84zw7O4ixfN3rXtf80R/9UTruL/7iL1I7PeOMM1IbRQKnr5E/d7kKu/Z7V4J8ldBRO05RvnYRMJ587Wtfa/ciob13BILAdXwLWEZYLgyMN998c5MtJh0XIy43AgS0neeee27Lv+k2pg1Onzt9DHi003n0hwXu542pBPkqoePnJYp364TAjTfemLIVvOtd72ouueSSNPmSKSFknAgEgevpvtrTknUuJBAIBMaDQAnyVULHeBCNmiyCwIMPPtj88i//cvOLv/iLzV577dXsvffeKVRiER1x7HAQCALX07360Y9+FA9WT9jHZQOBthAoQb5K6GirfqG3fgTEUSNvv/ALvxCJtuu/XSuVMAjcSvAtf/K73/3uSA2yPHxxZiBQJQIlyFcJHVWCE4XqBAGL5H7lV36l2W+//Tq5XlykPwSCwPWE/fXXX988+uijPV09LhsIBAJtIFCCfJXQ0UbdQme9CIhhlebnvvvua+68885m27ZtKZ2V9xbGSTYfMj4EgsCN755GjQKBQKAnBEqQrxI6eqp+XLZDBKSkuu666xreHCvO5R8955xzmvPOOy8lgJcOSAorv5911lnpGOlF/vVf/3Wp3JAdVi0uNScCQeDmBKr0YVdffXUj4DQkEAgExoNACfJVQsd4EI2aTCPw5S9/OaWjOuWUU9JKU+lCtBn5HDcTe2k/8sgjjVWqtnw8+eSTmwsuuCDlftzsnPi+fgSCwPV0jzw8d9xxR09Xj8sGAoFAGwiUIF8ldLRRt9DZLwLSTskhKm+orfKk+VlWJPL+whe+kNKMsM5961vfWlZVnNcjAkHgegJfFvyNcm/1VJy4bCAQCBRAoAT5KqGjQFVCRSUIiF+zNR6L29133128VCx6kn3bCehnP/tZcf2hsD0EgsC1h+1MzfY7/e///u+Zx8SPgUAgMCwESpCvEjqGhVqUdjMEdu3a1Rx66KHJWrbZMSW+t3LV7g07duzYY+u8ErpDR3sIBIFrD9uZms2obr311pnHxI+BQCAwLARKkK8SOoaFWpR2IwSuueaa5oQTTujUvSlG7i1veUtazbpRmeK7uhAIAtfT/bjrrrtiaXdP2MdlA4G2EChBvkroaKt+obcbBD75yU82EvLOWpjQVkl4h4477rgm9jhuC+FyeoPAlcNyIU32owwJBAKBcSFQgnyV0DEuVNerNtdee22KeRMn3ZfYPxWJ+/d///e+ihDXnQOBIHBzgNTGIeIN2ghIbaOsoTMQCATmQ6AE+SqhY77SxlG1ISBHG+IkJq1vsTL1qKOOSgmC+y5LXH9jBILAbYxL699edtllMbtpHeW4QCDQLQIlyFcJHd3WOq5WAoEf/vCHzZve9Kbm4YcfLqGuiI5Pf/rTafVrEWWhpDgCQeCKQxoKA4FAYF0RKEG+SuhYV/yHXG8L22yxWJvYzeGf/umfaitWlKdpmiBwPTWDr3zlK2Ga7gn7uGwg0BYCJchXCR1t1S/0toPA17/+9ZRUtx3tq2l94oknUp642E91NRzbODsIXBuozqFT9msPbUggEAiMB4ES5KuEjvEgOv6aWNC2ffv2tAm92l5++eXNt7/97Q0rbkusPmKn7drw4Q9/eMMyxZf9IRAErifsH3/88SoCVXuqflw2EBglAiXIVwkdowR3pJX66le/2vzlX/5l8/zzz6e9SV//+tc3t912W4qR9p10Hra++sxnPpNWp9o1wab0EsHbzef9739/+rNq9ZZbbmlsYm8lq622rrjiiubHP/5x8vb84z/+YxpzvDIgPProo43Vpk8++WQ65r777mu++c1vNs8991xj2y7tkKfo7LPPTvumHnPMMakcI70Ng6xWELiebpuHr89l4j1VOy4bCIwagRLkq4SOUYM8ssq9613vak466aTmP//zPxP5ssBNkvedO3c2FjZ86EMfSkTs4x//eLLOIVIsYgjd5z73ufT7JZdc0nzsYx9rTjzxxMbCA1kObHJ/xBFHJAIohm2fffZp7r///nQeEufvS1/6Uvr9u9/9brrG1VdfnY45+OCDmy9+8YvNBz/4wUTmLr744ub0009vPvvZz44M/WFXJwhcT/fv3e9+d9qQuKfLx2UDgUCgBQRKkK8SOlqoWqhsAQHWLxvUI2esYnfeeWcjlYjN6iXyPfbYY1MqDwSK6/QHP/jB7oUOl156aSJqjz32WPPUU081559/fvO+970vlRKxu+qqqxK5o/sTn/hE+l1et3PPPTelKkHOXMuq1//5n/9J5MzuDx/96EcbhFBCX+WxM4NysMopY+QwbaEhLKkyCNySwK162g033BB7zq0KYpwfCFSGQAnyVUJHZbBEcTZBwDjAEnbGGWckC5fDWLlsMI942YnhH/7hHxIZE4OGyCFUrGzcpM6/8MILEznLuzcgaxdccEFyp37qU59qzjnnnETaED66GA9Y67heP//5zyfCRh9Cd8opp6TvXZ/7lOWOdU5ZuFy5U//jP/5jk9rE110jEASua8TjeoFAIDBaBEqQrxI6RgvwyCr2nve8pxEDZ2tF7lKCKCFNLGNi3MSl/eQnP2luuummRkoPblJWMrFthMvV309/+tNEsM4777zkPmUpsxjinnvuSToefPDB5vvf/346F0n0WbJeZaD3rW99a2MvVOE9LIN+d23iOGQSyUP6QupAIAhcT/dBrIEHJCQQCATGg0BYKxMbAAAKpUlEQVQJ8lVCx3gQHW9NLDLgJuUCnVcQuc22t6KPS3RZQdbomCVi75C4kDoQCALX031g4hZfEBIIBALjQaAE+SqhYzyIjrcm8qtZwNDHhvXLooo8staF1IFAELie7oMVqMzjIYFAIDAeBEqQrxI6xoPoeGvywAMPNH/3d3/XSgW5T6UiYeETI2eRQgnhghWvt5WlrsS1QsfWCASB2xqjVo4QUyC3T0ggEAiMB4ES5KuEjvEgOt6a8MBYUFBKuGKlI7GIQRybFal5wYN8ciXkZz/7WVo1K94upH8EgsD1dA/ChdoT8HHZQKBFBEqQrxI6WqxiqC6EgJ14ShE43hzJfeVuY3GTO87iBHHWPpeKt2bZs4hiSG7fQrerSjVB4Hq6LXL65FVHPRUhLhsIBAKFEShBvkroKFytUNcCAnK9lSJwCFXWJQWI1CG7du1KpbbilDu1hLDkBYErgWQZHUHgyuC4lJYwQy8FW5wUCFSLwDzki7VEFv3NrCLz6KgWgCjY3AiYxJeKgWMZ+8hHPtJcdNFFzTve8Y6UdFdqEXncbK1lwUQJsQpWrrjYRagEmqvrCAK3OoZLabAHnYfXvnMhgUAgMA4E5iVfcmnJbs/NJe/XpMyrY/KceD88BOR5kxi3VHyaje7toJBTiUi4K1mvPU5Lie2+zjzzzGJlLlWuddUTBK6nO28mI3N2TsbYUzHisoFAIFAQgUXIFyuGDPjHH398ypyfM9x/73vfa97+9rcXLFWoqhEBi9hsTfWjH/2oxuJtWKY77rgjtdUNf4wvO0cgCFznkO95QcuybWuSM15bnm2lD5O4P+9zuhHWumyxM2vzW569eZ+XdoeOJmETeET76Op58Yx6Bq0ERL7mfW71Biwntjw67rjjUpJUwe2nnXbanh1FfBolAu985zs3daWXrvD0eLKMfgnouWZD6kAgCFzP9+GZZ55JbhQbDxMduS1NLAPnZj3hhBOaL33pS+k3K1dzzMTXvva19Nv999+fVgSJS7DPHWHZW0SH5IyCYCd1KA8dZom5HFY4EauamP5JLsdWOgxs6rKRjltvvTX9NqnDVjFkshzz6ECEc12yDnEguS5Zhz0EiZVbkmnq3HI56BCfeOqpp6ZtZxxHh/JbeDJLh8HXcZM6xKZM62Cpcdz111+fflOOvFF01sH1kcuRdWgfuRzTOsS6ZB0CpB03S4eNsbMOGdaJGJppHffee2+KeRFbYz9GksthAsKt4lqTOrhZYJrLsZEO1ifnbaVDALbj5tWRt/qRRiG7e7IO2wqxfKmLlXpkshy2MHKtrXQgaEhW1iGmTXD3N77xjWbbtm3p/UY6br/99qRf/FPWkQdEr3vttVfz6le/Oj2LqXDxb9QI2NUgPzdtVtQ4Y89V7T63y2WuZwyyR2pIHQgEgavjPuwuBYtathwZAL3PVjaz/PxbPs4xxPfZUjd53LI6sn66V9Xh/NDRpPvoPgUeLySwzm1sTHgg9yxw8z63ni8WOBMVFjhEHdkMC1zq1kb/z2TNilGizSBzJ598cppUSL5rcvm2t72t+Zd/+Zc00T/yyCObD3zgA7stvSbT2g/y/9RTT6UJ2fnnn58msQjb0UcfnTafNzk1IeWuF3NpouE8xoGHHnoo7QrkN23Q4hrt2Ocrr7xy95iTJ8aRv7SeZhkErp57ESUJBAKBgSOwSAwc6yqXlIGSBdagSSIGbuCNYIHis4whbDwuLMMIFS+F3Q5Yry1C+NznPtfs3LkzbW6P0LFY8y6wHEvai6ghZ7fccktzzTXXNK973esaHgYLGhA/JI8eell+Wf20O+TxmGOOSZ4HngDnI5AsdOeee246RtkcR/zu+5B6EAgCV8+9iJIEAoHAwBGYl8AZlGXJN7hm4parPq+OfHy8DhsBFrXrrrsuWc245IXJ7NixI4UMsOb6zEVvsQPixnKNnD3++OONEBr53y6//PJkhWMxQ9CQuhtvvDEBo40Jr0H8iPcsdsIlnCfcg1v029/+diJ4ymKFNMugGD3XID6H+zRBUc2/IHDV3IooSCAQCAwdgXnIlxAHyVUfeeSRDas7j44NT4wvB4kAlyaXufhLsbpImC2xxBezeHGvs9DK5SauU8gBkiWeTbzqtddem9qT+DTu00svvTRZy8R/ImBIWra8IW2sc0gfEsi6xuqHRGqPPrPUiflFJrn0uWbFuXLlitsMqQeBIHD13IsoSSAQCAwcgRLkq4SOgcO4dsVHvFjMuE1Z25A6MXDcmQiYFDOIm++9EguJuEjJk08+mX7zu/bjGHutXnHFFbuT7soPx+Uq1o4+Kaxcwznco1y4XLli3Lj3XReJJOedd97uBVfpi/hXBQJB4Kq4DVGIQCAQGAMCJchXCR1jwHKd6sDCZYEC92htkleSI34hdSEQBK6u+xGlCQQCgQEjUIJ8ldAxYAjXtuhcp9ygNQkrnbQ6JXdzqKl+Qy9LELih38EofyAQCFSDQAnyVUJHNYBEQRZCQBoPC1xqEatec+7HWsoU5fg5AkHgfo5FvAsEAoFAYCUESpCvEjpWqkSc3BsCFgxYASppdd9iIYOE7Tm/aN/lieu/GIEgcC/GJL4JBAKBQGApBEqQrxI6lip8nFQFAhYVsMTZmaYvsbL19NNPb+zZHVIvAkHg6r03UbJAIBAYGAIlyFcJHQODLYo7hcADDzyQSJzN47sWWzEib+LfQupGIAhc3fcnShcIBAIDQqAE+SqhY0CQRVE3QYAlzlZY8rp1IVKKyBsn7k1KkZD6EQgCV/89ihIGAoHAQBAoQb5K6BgIXFHMLRD44Q9/mEgVYmWnhLbk5ptvTqtNJe/NeebaulboLYdAELhyWIamQCAQWHMESpCvEjrW/DaMrvr2KLX1mt0TJO0tJeLs7PZw4oknVrFwolS91kVPELh1udNRz0AgEGgdgRLkq4SO1isaF+gcgWeffTbtrGCbLVtq3XXXXWn/1EULYk/VXbt2pT1WTznllLS11qI64vg6EAgCV8d9iFIEAoHACBAoQb5K6BgBlGtbBS5MMWjTf3knBKlGbKN16qmnpr1TbTJvi6zbbruteeyxx9L2WM61HZZtsexxahN6m9jbH9UKV3FuN910024C+Nxzz73oerHvaf1NMAhc/fcoShgIBAIDQaAE+SqhYyBwRTE3QMD9f/vb355i0uyCMP138sknp43sbWZ/4IEHNr/zO7/T/OEf/mGz//77N4ceemha+OCc448/vjnqqKOav/mbv2n+9E//tHnZy17WvOIVr2iOOOKI5rTTTksEkOt0Wn/+fOGFF8Zihg3uT01fBYGr6W5EWQKBQGDQCJQgXyV0DBrENS88C5zkufP8bQSV/VTzuZvtrZp/3+p1I/3xXT0IBIGr515ESQKBQGDgCJQgXyV0DBzGKH4gEAjMgUAQuDlAikMCgUAgEJgHgRLkq4SOecoaxwQCgcCwEUgE7oADDhh2LaL0gUAgEAhUgIC8XVb2rSIC0cUohQQCgUAgMAsB3G2vvffeO61IsSol/gKDaAPRBqINLNcGrrzyyrTKb1anu9VvTzzxRLNt27boi2M8ijYQbWBmG8Dd9rJxre064i8wiDYQbSDawGpt4N57792Ko235+w033BD9cYxJ0QaiDcxsA7jb/wHa59TZfds6eAAAAABJRU5ErkJggg==;" vertex="1" parent="1">
          <mxGeometry x="330" y="130" width="624" height="375" as="geometry" />
        </mxCell>
      </root>
    </mxGraphModel>
  </diagram>
</mxfile>
